<svg width="128" height="128" viewBox="0 0 128 128" fill="none" xmlns="http://www.w3.org/2000/svg">
<path d="M90 51.1299V51.2799H90.31C90.3128 51.1322 90.3433 50.9863 90.4 50.8499V50.5799C90.27 50.5799 90.14 50.7899 90.02 51.1599L90 51.1299ZM87 43.9999V43.7299H86.56V43.9999H87ZM78.48 59.9999C77.8363 58.898 77.0457 57.8887 76.13 56.9999C76.13 56.6799 76.63 56.2099 77.72 55.5799L80.84 52.9999C81.6634 51.7148 82.0911 50.216 82.07 48.6899V48.2299C81.95 46.8499 80.95 45.7399 79.07 44.8899C77.95 44.1366 75.95 43.7199 73.07 43.6399C69.8297 44.0637 66.6633 44.9319 63.66 46.2199C62.4933 47.0499 61.2815 47.8144 60.03 48.5099V48.7399C60.1606 48.7148 60.2838 48.6601 60.39 48.5799C60.4214 48.5722 60.4542 48.5718 60.4858 48.5789C60.5173 48.5859 60.5469 48.6002 60.572 48.6205C60.5972 48.6408 60.6173 48.6667 60.6308 48.6961C60.6444 48.7255 60.6509 48.7576 60.65 48.7899L60.88 48.6699H60.99V48.7699C60.2375 49.54 59.3908 50.212 58.47 50.7699L58.6 51.0099H58.49L58.21 50.9099C58.21 50.9899 58.1 51.0499 57.87 51.0699V51.1699L58.14 51.5099C58.0052 51.5065 57.8726 51.4759 57.75 51.4199C57.2999 51.4828 56.8878 51.7066 56.59 52.0499L56.75 51.3599C57.2635 49.2178 57.6509 47.0474 57.91 44.8599V44.7399C57.4784 44.4541 57.0967 44.0994 56.78 43.6899C56.7908 43.5268 56.7908 43.3631 56.78 43.1999V43.0999H56.67C55.4366 44.9466 53.0667 48.0966 49.56 52.5499C46.8933 55.7166 45.5133 57.4766 45.42 57.8299C44.33 58.9599 43.81 59.6399 43.86 59.8299C43.57 60.0199 43.45 60.1999 43.5 60.4099C43.4836 60.416 43.4661 60.4185 43.4487 60.4172C43.4312 60.4158 43.4143 60.4107 43.399 60.4021C43.3838 60.3936 43.3706 60.3818 43.3604 60.3675C43.3502 60.3533 43.3432 60.3371 43.34 60.3199C43.1117 60.6917 42.8092 61.0124 42.4513 61.2619C42.0934 61.5114 41.6878 61.6844 41.26 61.7699L40.26 61.9899C40.2285 61.9946 40.1984 62.0058 40.1715 62.0227C40.1446 62.0396 40.1214 62.0619 40.1036 62.0882C40.0857 62.1146 40.0735 62.1443 40.0677 62.1756C40.062 62.2068 40.0627 62.239 40.07 62.2699V62.3899L40.43 62.3099V62.4099L39.61 62.7299L38.16 63.0699H37.4C37.29 63.1799 38.01 63.0699 37.73 63.1299L36.73 63.3499C36.15 63.4799 35.84 63.4299 35.73 63.1999H35.62C35.638 63.2789 35.638 63.3609 35.62 63.4399L35.56 63.2099L34.8 63.3899C34.7467 63.0366 33.7166 61.7499 31.71 59.5299C31.71 59.0999 32.38 58.4799 33.83 57.6699L38 54.1399C38.9133 52.9666 39.4567 51.0832 39.63 48.4899L39.57 47.8799C39.41 46.0499 38.09 44.5799 35.57 43.4399C34.1 42.4399 31.45 41.9099 27.63 41.8299C23.3775 42.3938 19.2202 43.5273 15.27 45.1999C13.7377 46.294 12.1415 47.2958 10.49 48.1999V48.5199C10.6615 48.4907 10.8249 48.426 10.97 48.3299C11.0099 48.3192 11.0518 48.3178 11.0924 48.3258C11.133 48.3338 11.1711 48.3511 11.204 48.3762C11.2369 48.4013 11.2635 48.4337 11.2819 48.4707C11.3002 48.5078 11.3099 48.5485 11.31 48.5899L11.63 48.4099H11.79V48.5599C10.779 49.5506 9.65842 50.4229 8.44998 51.1599L8.62998 51.4399H8.48998L8.14998 51.3199C8.14998 51.4099 7.99998 51.4799 7.66998 51.5099V51.6799L8.03998 52.0899C7.8685 52.0884 7.69885 52.0545 7.53998 51.9899C7.09281 52.0827 6.67097 52.2711 6.30333 52.542C5.9357 52.813 5.63097 53.1602 5.40998 53.5599L5.58998 53.8399C5.90171 53.507 6.26255 53.2237 6.65998 52.9999V53.4599C6.49038 53.4956 6.32807 53.5598 6.17998 53.6499L6.55998 54.2299C7.28343 53.4645 8.09976 52.7927 8.98998 52.2299C9.42998 52.3399 9.65998 52.4799 9.66998 52.6299H10.01C12.1732 50.9774 14.5826 49.6749 17.15 48.7699V49.0899C16.71 49.7566 16.4133 50.0899 16.26 50.0899C16.2707 50.3063 16.3514 50.5134 16.49 50.6799C16.53 51.0799 15.46 53.7799 13.28 58.7799C8.42665 70.3466 4.30665 78.9099 0.919983 84.4699C0.951106 84.6333 1.01955 84.7873 1.11998 84.9199C1.67862 84.8285 2.2128 84.6244 2.68998 84.3199H2.86998V84.6399H3.17998L3.49998 84.4599C3.49998 84.5499 3.60998 84.5999 3.82998 84.5799V84.8999C3.78866 85.4116 3.60891 85.9025 3.30998 86.3199C2.8089 87.0486 2.44307 87.8616 2.22998 88.7199V88.8699H2.53998C3.75789 87.5476 4.7876 86.0636 5.59998 84.4599C8.70382 83.6319 11.7184 82.4998 14.6 81.0799C16.3092 81.0323 17.963 80.4635 19.34 79.4499V79.2799L18.56 79.5099H18.38V79.3399C19.5011 79.2632 20.5878 78.9204 21.55 78.3399C24.5233 76.0466 26.77 74.4232 28.29 73.4699C31.41 71.1766 33.4366 68.9432 34.37 66.7699L34.89 66.6499C35.1398 66.6637 35.3902 66.6637 35.64 66.6499C35.64 66.5699 35.64 66.5199 35.74 66.4999C36.44 66.4299 36.1 66.4999 36.55 66.4399L37.69 65.9999H37.89L37.8 66.0599C37.942 66.0872 38.0879 66.0872 38.23 66.0599L38.31 66.3999L33 74.8499L31.82 76.3299L31.24 78.2699H31.35L31.93 78.0299L31.74 78.7799L31.8 78.9999L31.96 79.1999C31.89 79.1999 31.86 79.2699 31.88 79.3499V79.4699L32.12 79.4099C32.4733 79.1032 32.6233 78.8232 32.57 78.5699C32.8179 78.6338 33.0751 78.6541 33.33 78.6299V78.7499C33.1 78.8099 32.98 78.9899 32.96 79.3099V79.4299H33.09C35.03 77.3099 39.78 70.0799 43.59 65.1599C43.47 64.6266 45.47 63.8866 49.59 62.9399H49.72C49.8667 63.6066 49.5333 65.1632 48.72 67.6099C48.4252 68.3833 48.2075 69.1838 48.07 69.9999C47.6676 71.0436 47.3597 72.1212 47.15 73.2199L45.69 77.9999C44.7343 80.498 44.0112 83.0789 43.53 85.7099C43.662 85.683 43.798 85.683 43.93 85.7099L44.14 85.5299C44.1432 85.5471 44.1502 85.5634 44.1604 85.5776C44.1706 85.5918 44.1838 85.6036 44.1991 85.6121C44.2143 85.6207 44.2312 85.6258 44.2487 85.6272C44.2661 85.6285 44.2836 85.626 44.3 85.6199L44.22 85.2799H44.85C45.04 85.2799 45.19 84.9999 45.33 84.5699C45.33 83.9299 45.43 83.5699 45.72 83.5099C45.8675 82.7109 46.1092 81.9321 46.44 81.1899C46.5936 80.2912 46.866 79.4169 47.25 78.5899C47.8 76.5899 48.25 75.5899 48.46 75.5299L48.52 75.7699L48.12 76.7699C47.6005 79.2766 46.8918 81.7403 46 84.1399L46.21 85.0299H46.34C48.0733 81.3032 50.5667 73.9232 53.82 62.8899C53.8559 62.4313 54.0007 61.9879 54.2425 61.5966C54.4843 61.2052 54.816 60.8773 55.21 60.6399L55.02 60.4399V60.3399C55.3248 60.2928 55.602 60.1364 55.8 59.8999C55.8 59.8199 55.46 59.6899 54.8 59.5299L56.42 52.5299C56.5991 52.3371 56.8085 52.175 57.04 52.0499V52.3999C56.9093 52.425 56.7862 52.4798 56.68 52.5599L57 52.9999C57.5444 52.4047 58.1589 51.8775 58.83 51.4299C59.17 51.5199 59.33 51.6399 59.35 51.7499H59.59C61.2312 50.5072 63.0565 49.5287 65 48.8499V49.0799C64.6733 49.5732 64.45 49.8232 64.33 49.8299C64.3432 49.9898 64.3946 50.1441 64.48 50.2799C63.8379 52.3927 63.0322 54.4523 62.07 56.4399C59.3597 63.1566 56.2165 69.6903 52.66 75.9999C52.6909 76.1244 52.749 76.2405 52.83 76.3399C53.2481 76.2709 53.6469 76.1142 54 75.8799H54.11V76.1099H54.37L54.6 75.9899C54.6 76.0566 54.6833 76.0832 54.85 76.0699V76.3199C54.8153 76.703 54.677 77.0694 54.45 77.3799C54.0534 77.927 53.7649 78.5447 53.6 79.1999V79.3199H53.84C54.7649 78.3162 55.5457 77.1887 56.16 75.9699C58.5196 75.3248 60.8104 74.4506 63 73.3599C64.305 73.3261 65.5683 72.8933 66.62 72.1199V71.9999L66.01 72.1799H65.9V72.0599C66.7498 71.9977 67.5726 71.7337 68.3 71.2899C70.55 69.5599 72.3 68.2899 73.42 67.5899C77 64.9999 78.68 62.4599 78.48 59.9999ZM77.86 60.1599L77.94 61.0999C77.83 61.3299 77.71 61.4499 77.6 61.4599L77.46 59.8599C77.72 59.9499 77.85 60.0499 77.86 60.1599ZM7.30998 52.6199H7.14998V52.3299L7.78998 52.2699V52.4199C7.6219 52.4502 7.46189 52.5149 7.31998 52.6099L7.30998 52.6199ZM4.16998 83.9999C3.86046 83.8445 3.51588 83.7721 3.16998 83.7899V83.3299C3.16998 83.1499 3.24998 83.0299 3.47998 82.9899C3.70998 82.9499 3.80998 83.1199 3.81998 83.4199C4.08293 83.058 4.38105 82.7231 4.70998 82.4199L5.04998 82.5599C4.93998 83.4899 4.64998 83.9699 4.18998 83.9999H4.16998ZM37.72 48.8999C37.56 48.8999 37.24 48.4199 36.79 47.4499V47.1599C37.09 47.1599 37.4 47.6199 37.72 48.6099V48.8999ZM37.27 45.4199L37.14 45.7299L32.58 43.8299C35.62 43.9299 37.1833 44.4599 37.27 45.4199ZM18 61.9999L17.36 62.0599V61.7699L18 61.7099V61.9999ZM17.48 52.0799H17.64V52.5399C17.49 52.5399 17.3 52.7699 17.05 53.1999V52.8799C17.34 52.5399 17.49 52.2699 17.47 52.0899L17.48 52.0799ZM16.13 55.2699L16.19 55.8799H16.03L16 55.2499L16.13 55.2699ZM15.42 56.4099H15.73C15.73 56.9099 15.56 57.1799 15.31 57.1999H15.15C15.3113 56.9741 15.405 56.707 15.42 56.4299V56.4099ZM14.92 57.9999H15.1V58.1499L14.81 58.6299H14.5V58.4799C14.5627 58.4847 14.6256 58.4747 14.6837 58.4506C14.7417 58.4265 14.7933 58.3891 14.8342 58.3414C14.8751 58.2937 14.9042 58.237 14.9191 58.1759C14.934 58.1148 14.9343 58.0511 14.92 57.9899V57.9999ZM14.4 59.4299L14.31 60.1899H14.15L14.08 59.4399H14.4V59.4299ZM9.16998 74.2499C8.95998 75.2499 8.73998 75.8199 8.50998 75.8399V75.6899C8.49334 75.4131 8.54587 75.1366 8.66284 74.8852C8.77981 74.6338 8.95754 74.4154 9.17998 74.2499H9.16998ZM8.16998 76.3299V76.4799C8.18128 76.5215 8.18243 76.5653 8.17336 76.6074C8.16428 76.6496 8.14524 76.689 8.11782 76.7223C8.09041 76.7555 8.05541 76.7818 8.01577 76.7988C7.97613 76.8158 7.933 76.823 7.88998 76.8199V76.6699C7.88998 76.4899 7.98332 76.3766 8.16998 76.3299ZM7.88998 80.6399H8.36998V80.8099C8.19851 80.8391 8.03502 80.9039 7.88998 80.9999H7.57998C7.57998 80.8399 7.65998 80.7199 7.85998 80.6599L7.88998 80.6399ZM21.68 76.3799C19.9861 77.1139 18.3767 78.0292 16.88 79.1099C13.9666 80.1366 12.5233 80.7666 12.55 80.9999C10.7829 81.6642 9.05659 82.4322 7.37998 83.2999C7.08315 83.2955 6.7917 83.22 6.52998 83.0799C6.51128 82.818 6.56826 82.5562 6.69414 82.3257C6.82002 82.0952 7.00949 81.9058 7.23998 81.7799C7.68807 81.7451 8.13785 81.8206 8.54998 81.9999C9.36212 81.6359 10.21 81.3577 11.08 81.1699V80.8499L10.08 80.9299C10.9587 80.3848 11.8985 79.9451 12.88 79.6199H13.36V79.7699C12.53 79.8399 12.07 80.0899 11.97 80.5199C11.97 80.7199 12.1 80.7999 12.31 80.7799C12.93 80.3899 13.24 80.1599 13.23 80.0899C14.41 79.8632 17.68 78.1532 23.04 74.9599V75.2499C23.04 75.3899 22.59 75.7799 21.67 76.4499L21.68 76.3799ZM13.46 79.0799C14.2165 79.0193 14.9261 78.6893 15.46 78.1499C15.68 78.1499 15.8 78.2199 15.81 78.4099C15.0288 78.6174 14.2884 78.9555 13.62 79.4099H13.46V79.0999V79.0799ZM26.77 68.8999L22.66 72.1599C21.0865 73.2758 19.4357 74.2783 17.72 75.1599C12.8533 77.8266 9.82998 79.2166 8.64998 79.3299H8.46998C8.61665 78.7832 10.7833 74.3466 14.97 66.0199C17.9719 65.5368 20.8992 64.6697 23.68 63.4399L24.68 63.3599C25.4671 63.2193 26.2752 63.2492 27.0498 63.4476C27.8244 63.646 28.5474 64.0083 29.17 64.5099L29.23 65.1199C28.49 67.2499 27.67 68.4999 26.79 68.8699L26.77 68.8999ZM18.77 64.3799L19.43 64.3199V64.4699L18.77 64.5299V64.3799ZM28 62.8099H28.48C28.93 63.0199 29.16 63.2099 29.18 63.3799V63.5299C28.9369 63.5263 28.6992 63.4576 28.4917 63.331C28.2842 63.2044 28.1144 63.0244 28 62.8099ZM29.31 55.3299C28.2418 56.3363 27.0606 57.2155 25.79 57.9499C25.16 58.0099 22.79 58.9499 18.72 60.7099C18.5165 60.6176 18.2925 60.5797 18.07 60.5999V60.3099C18.0921 59.505 18.3687 58.7278 18.86 58.0899C19.18 56.4099 19.52 55.4499 19.86 55.2199L23.26 47.5699C23.22 47.0966 23.9466 46.7332 25.44 46.4799H25.92V46.9199C27.38 46.6999 28.3 46.5699 28.65 46.5399C31.35 46.3099 32.76 46.8599 32.87 48.1699H33.18L33.11 47.3999H33.45C33.7799 47.5358 34.0702 47.7528 34.2939 48.0307C34.5177 48.3087 34.6677 48.6386 34.73 48.9899C34.6987 49.5856 34.4537 50.1502 34.04 50.5799C33.83 50.5799 33.71 50.4499 33.7 50.1499H33.36L33.29 51.0799C31.9233 53.1266 30.9233 54.1799 30.29 54.2399C29.73 55.0099 29.39 55.3999 29.29 55.3999L29.31 55.3299ZM31.4 60.6899C31.2085 60.5368 30.9746 60.4461 30.73 60.4299V59.9699H31.04L31.72 60.3699C31.7313 60.4115 31.7324 60.4553 31.7234 60.4974C31.7143 60.5396 31.6952 60.579 31.6678 60.6122C31.6404 60.6455 31.6054 60.6718 31.5658 60.6888C31.5261 60.7058 31.483 60.713 31.44 60.7099L31.4 60.6899ZM33.56 63.2499C33.86 63.3699 34.04 63.4999 34.07 63.6199H33.92H33.83L33.61 63.7999L33.55 63.1799L33.56 63.2499ZM33.76 64.5399V64.4199L34.15 64.3299V64.4499L33.76 64.5399ZM34.7 65.5899C35.1 65.5199 35.3 65.4999 36.04 65.3299V65.4499L34.62 65.7799C34.6232 65.7166 34.6232 65.6532 34.62 65.5899H34.7ZM36.08 66.1799C35.6004 66.1901 35.1237 66.2573 34.66 66.3799V66.2599L35.85 65.8799L36.42 65.7499L36.48 65.9699C36.22 66.0299 36.41 66.0299 36.11 66.1799H36.08ZM37.34 65.8799C37.3065 65.8889 37.2715 65.8911 37.2372 65.8863C37.2028 65.8816 37.1698 65.87 37.14 65.8523C37.1101 65.8346 37.0842 65.8111 37.0636 65.7832C37.043 65.7553 37.0281 65.7236 37.02 65.6899L37.38 65.6099C37.4122 65.5973 37.4469 65.5924 37.4813 65.5956C37.5158 65.5989 37.549 65.6103 37.5782 65.6288C37.6074 65.6473 37.6319 65.6724 37.6496 65.7022C37.6672 65.7319 37.6777 65.7654 37.68 65.7999L37.34 65.8799ZM40.75 62.2099V62.0899L41.34 61.9499L41.4 62.1699H40.78L40.75 62.2099ZM44.39 84.5499C44.415 84.4279 44.415 84.302 44.39 84.1799H44.52C44.5501 84.1673 44.5827 84.1618 44.6152 84.164C44.6478 84.1661 44.6794 84.1759 44.7075 84.1924C44.7357 84.2089 44.7596 84.2317 44.7774 84.259C44.7951 84.2864 44.8063 84.3175 44.81 84.3499V84.4699L44.33 84.5799L44.39 84.5499ZM47 63.1599H46.74C46.396 63.3032 46.0416 63.4202 45.68 63.5099L45.44 63.5699C45.4085 63.5806 45.3751 63.5846 45.342 63.5817C45.3089 63.5787 45.2768 63.569 45.2476 63.553C45.2185 63.537 45.193 63.5152 45.1727 63.4888C45.1525 63.4625 45.1379 63.4322 45.13 63.3999L46.81 62.9999L47.37 62.7399L47.56 62.9499C47.3494 62.9793 47.1498 63.0619 46.98 63.1899L47 63.1599ZM48.31 62.7399V62.6199C48.4339 62.5805 48.5446 62.5079 48.63 62.4099L49.84 62.1299V62.2499C49.3172 62.3658 48.8053 62.5264 48.31 62.7299V62.7399ZM48.5 60.2899C48.3737 60.3363 48.258 60.4077 48.16 60.4999C48.16 60.4199 47.97 60.4199 47.66 60.4999C47.6 60.2699 48.5 59.9399 50.35 59.4999L50.61 59.4399L50.67 59.6599C49.37 60.0399 48.67 60.2599 48.5 60.2799V60.2899ZM51.76 56.7699C51.63 58.2499 51.11 59.0899 50.19 59.2999V59.1799L49.37 59.4999L49.01 59.5799C48.8466 59.6266 48.6734 59.6266 48.51 59.5799L48.44 59.2499C49.5248 57.5418 50.7137 55.902 52 54.3399H52.28C52.3159 55.1637 52.1512 55.9839 51.8 56.7299L51.76 56.7699ZM57.53 51.8299H57.42V51.5999H57.9V51.7199C57.7742 51.7548 57.6533 51.8051 57.54 51.8699L57.53 51.8299ZM55.13 75.6899C54.8992 75.5686 54.6406 75.51 54.38 75.5199V75.1699C54.38 75.0499 54.4533 74.9666 54.6 74.9199C54.76 74.9199 54.85 75.0099 54.87 75.2599C55.0603 74.9763 55.2854 74.7176 55.54 74.4899L55.79 74.5899C55.7 75.2999 55.48 75.6699 55.15 75.6999L55.13 75.6899ZM80.6 48.9999C80.48 48.9999 80.25 48.6399 79.88 47.8799V47.6499C80.11 47.6499 80.36 47.9899 80.6 48.7399V48.9999ZM80.26 46.3399L80.15 46.5799L76.7 45.1399C79 45.2099 80.19 45.6199 80.26 46.3399ZM65.65 58.9299H65.17V58.6999H65.65V58.9299ZM65.25 51.3899H65.38V51.7399C65.26 51.7399 65.11 51.9066 64.93 52.2399V52.0099C65.0986 51.8429 65.2076 51.625 65.24 51.3899H65.25ZM64.25 53.8099V54.2699H64.12V53.8099H64.25ZM63.7 54.6799H63.94C63.94 55.0732 63.8367 55.2766 63.63 55.2899H63.5C63.6182 55.1073 63.6871 54.8971 63.7 54.6799ZM63.31 55.8699H63.42V55.9999L63.21 56.3699H62.97V56.2499C63.22 56.2499 63.33 56.0999 63.31 55.8699ZM62.9 56.9999L62.82 57.5999H62.7V57.0099H62.94L62.9 56.9999ZM58.9 68.2999C58.74 69.0799 58.5733 69.4799 58.4 69.4999V69.3999C58.3917 69.1893 58.4337 68.9797 58.5223 68.7884C58.611 68.5972 58.7439 68.4297 58.91 68.2999H58.9ZM58.16 69.8699V69.9699C58.17 70.0028 58.1717 70.0377 58.165 70.0714C58.1584 70.1052 58.1435 70.1368 58.1218 70.1634C58.1001 70.1901 58.0721 70.211 58.0404 70.2243C58.0087 70.2377 57.9742 70.243 57.94 70.2399V70.1199C57.94 69.9999 58.0133 69.9166 58.16 69.8699ZM58 73.1099H58.37V73.2299C58.2425 73.2544 58.1205 73.3018 58.01 73.3699H57.77C57.77 73.2366 57.8433 73.1532 57.99 73.1199L58 73.1099ZM68.46 69.8799C67.1798 70.4475 65.9575 71.1373 64.81 71.9399C62.57 72.7199 61.47 73.2099 61.48 73.3999C60.1466 73.8942 58.8442 74.4686 57.58 75.1199C57.3556 75.1103 57.1365 75.0487 56.94 74.9399C56.9179 74.7381 56.9577 74.5344 57.0541 74.3557C57.1506 74.1771 57.2991 74.0321 57.48 73.9399C57.8206 73.9077 58.1638 73.9592 58.48 74.0899C59.1025 73.8234 59.7487 73.6158 60.41 73.4699V73.2399L59.66 73.3099C60.3313 72.8932 61.0496 72.5575 61.8 72.3099H62.17V72.4099C61.54 72.4699 61.17 72.6499 61.11 72.9899C61.1091 73.0222 61.1156 73.0544 61.1291 73.0838C61.1426 73.1131 61.1628 73.139 61.1879 73.1593C61.2131 73.1797 61.2426 73.1939 61.2742 73.2009C61.3058 73.208 61.3386 73.2076 61.37 73.1999C61.84 72.8899 62.06 72.7199 62.06 72.6599C62.9533 72.4999 65.4333 71.1999 69.5 68.7599V68.9899C69.5 69.0799 69.16 69.3799 68.5 69.8899L68.46 69.8799ZM62.22 71.8799C62.8026 71.8349 63.351 71.5872 63.77 71.1799C63.93 71.1799 64.02 71.2399 64.03 71.3899C63.4436 71.5403 62.8838 71.7798 62.37 72.0999H62.24V71.8799H62.22ZM72.3 64.1399L69.2 66.6399C67.9967 67.5191 66.7299 68.308 65.41 68.9999C61.7233 70.9999 59.4267 72.0532 58.52 72.1599H58.39C58.5033 71.7399 60.1533 68.3732 63.34 62.0599C65.6192 61.6762 67.8403 61.0041 69.95 60.0599L70.7 59.9999C71.2974 59.8939 71.9106 59.9185 72.4976 60.0722C73.0845 60.2258 73.6312 60.5048 74.1 60.8899V61.3499C73.57 62.9999 73 63.8999 72.28 64.1799L72.3 64.1399ZM66.21 60.7099H66.69V60.8299H66.21V60.7099ZM73.26 59.5099H73.63C73.97 59.6799 74.15 59.8299 74.16 59.9499V60.0499C73.9761 60.0569 73.7938 60.013 73.6332 59.923C73.4727 59.833 73.34 59.7004 73.25 59.5399L73.26 59.5099ZM74.26 53.8399C73.4544 54.6081 72.5617 55.2793 71.6 55.8399C69.7442 56.4117 67.9382 57.1341 66.2 57.9999C66.0431 57.9436 65.8764 57.9198 65.71 57.9299V57.6999C65.7141 57.0886 65.91 56.494 66.27 55.9999C66.51 54.7099 66.78 53.9999 67.06 53.8299L69.67 47.9999C69.67 47.6599 70.19 47.3799 71.31 47.1599H71.68V47.5099C72.78 47.3299 73.47 47.2266 73.75 47.1999C75.75 47.0199 76.87 47.4299 76.96 48.4399H77.2V47.8799H77.44C77.6954 47.9718 77.9222 48.1292 78.0977 48.3363C78.2732 48.5433 78.3912 48.7929 78.44 49.0599C78.4245 49.5114 78.2511 49.9431 77.95 50.2799C77.79 50.2799 77.7 50.1899 77.68 49.9399H77.44L77.37 50.6399C76.25 52.1599 75.5 52.9999 75 52.9999C74.58 53.5699 74.32 53.8599 74.2 53.8699L74.26 53.8399ZM75.35 57.7199V57.3699H75.59L76.11 57.6899C76.1143 57.7212 76.1118 57.7531 76.1027 57.7833C76.0936 57.8136 76.0781 57.8415 76.0572 57.8653C76.0363 57.889 76.0106 57.9079 75.9817 57.9208C75.9529 57.9337 75.9216 57.9402 75.89 57.9399C75.7419 57.8271 75.5653 57.7578 75.38 57.7399L75.35 57.7199ZM31.94 80.3899L31.7 80.4499L31.49 80.6299C31.4937 80.6623 31.5048 80.6934 31.5226 80.7208C31.5404 80.7481 31.5643 80.771 31.5925 80.7875C31.6206 80.804 31.6522 80.8137 31.6847 80.8158C31.7173 80.818 31.7499 80.8125 31.78 80.7999C31.94 80.7999 32 80.6699 31.97 80.5199V80.3999L31.94 80.3899ZM31 78.5499V78.6699C31.16 78.6699 31.22 78.5399 31.19 78.3899V78.2699C31.1578 78.273 31.1268 78.2832 31.099 78.2997C31.0712 78.3162 31.0474 78.3386 31.0293 78.3653C31.0112 78.3921 30.9991 78.4225 30.9941 78.4544C30.989 78.4863 30.991 78.5189 31 78.5499ZM37.6 66.1599L37.78 66.0499H37.69C37.6624 66.057 37.6387 66.0745 37.6238 66.0988C37.6088 66.123 37.6039 66.1521 37.61 66.1799L37.6 66.1599ZM37.6 62.9499L37.88 62.8799L37.82 62.6399L37.54 62.7099L37.6 62.9499ZM103.45 72.3599L102.82 72.2899L102.71 72.5299V72.6499L106.48 72.3299V72.0999L103.48 72.3599H103.45ZM106.9 72.0699V72.2999V72.0699ZM122.7 69.9999V70.2299L123.11 70.2999V70.0699L122.7 69.9999ZM122.12 69.9999C120.888 70.343 119.618 70.5344 118.34 70.5699V70.7999H118.6H118.74L119.05 70.6799C121.85 70.3699 122.18 70.4799 122.15 70.1699V69.9999H122.12ZM105.12 65.8799L104.87 65.7999C104.729 66.1195 104.628 66.4554 104.57 66.7999V66.8999C104.77 66.8999 104.94 66.5599 105.11 65.8999L105.12 65.8799ZM101.71 64.0399V63.9999H101.58L101.35 64.1499L101.48 64.3699C101.66 64.3699 101.74 64.2699 101.72 64.1099L101.71 64.0399ZM109.12 71.6999V71.4699H109V71.6999H109.12ZM124.49 68.2299H124.67C124.77 68.2299 124.82 68.1399 124.81 67.9899L124.71 67.7699C124.2 67.7671 123.697 67.8944 123.25 68.1399V68.0199L122.48 68.0899C122.48 67.8599 122.4 67.7399 122.29 67.7499H121.89C121.42 67.7499 121.2 67.7499 120.97 67.9499C120.97 67.8699 120.97 67.8299 120.89 67.8299H120.44L120.18 67.9799C120.18 67.8999 120.18 67.8599 120.1 67.8599L119.94 67.9999H119.32H119.17V68.2299L119.49 68.3099H119.79C119.893 68.37 120.012 68.3946 120.13 68.3799L120.39 68.2499V68.3499C119.581 68.5603 118.759 68.7173 117.93 68.8199C117.86 68.7607 117.772 68.7256 117.68 68.7199C117.654 68.7186 117.628 68.7122 117.604 68.7009C117.58 68.6897 117.559 68.6738 117.541 68.6543C117.524 68.6348 117.51 68.612 117.501 68.5872C117.492 68.5625 117.489 68.5362 117.49 68.5099L118.01 68.4399C118.125 68.4765 118.242 68.5065 118.36 68.5299C118.78 68.3199 118.8 68.2399 119.02 68.2199V67.9899C118.142 68.1512 117.252 68.2349 116.36 68.2399H116.28V68.0099C118.59 67.7299 117.82 67.8899 118.61 67.6699C118.61 67.7499 118.61 67.7899 118.69 67.7899C118.775 67.7018 118.888 67.6453 119.01 67.6299H119.17C120.076 67.6576 120.981 67.5394 121.85 67.2799V67.3799L122.11 67.2499H122.35C122.35 67.0199 122.69 66.9799 122.81 66.9699V66.7199C120 67.2899 119.26 67.1299 118.48 67.3499V67.2499C118.152 67.3257 117.815 67.3527 117.48 67.3299C117.391 67.357 117.311 67.409 117.25 67.4799C117.25 67.3999 117.25 67.3599 117.16 67.3599L114.77 67.7499C114.77 67.6799 114.77 67.6499 114.68 67.6599C113.846 67.9043 112.987 68.0585 112.12 68.1199C112.008 68.1402 111.903 68.1846 111.81 68.2499C111.81 68.1799 111.81 68.1499 111.68 68.1599L110.68 68.2399L110 68.4099C110 68.3399 110 68.3099 109.87 68.3199C109.543 68.4145 109.209 68.4781 108.87 68.5099C108.7 68.5099 108.95 68.5099 108.87 68.4099L108.66 68.5299C108.36 68.5299 108.52 68.5299 107.5 68.5299C105.7 68.7499 105.9 68.7799 105.7 68.7899H105.03C105.033 68.8042 105.033 68.819 105.03 68.8332C105.026 68.8474 105.019 68.8605 105.009 68.8713C104.999 68.8822 104.987 68.8904 104.973 68.8954C104.959 68.9004 104.944 68.9019 104.93 68.8999C104.17 68.7999 103.77 68.6799 103.77 68.5399C103.87 67.8132 104.047 67.4399 104.3 67.4199H104.43L104.32 67.6599H104.45C104.69 67.5299 104.8 67.4099 104.79 67.2999V67.0499H104.55V66.8199C104.528 66.6598 104.552 66.4966 104.62 66.3499L105.17 65.4599V65.6899H105.43V65.4599L105.28 65.2499C105.409 65.1184 105.571 65.0249 105.75 64.9799V64.8599H105.4V64.5099C105.85 63.7035 106.187 62.8386 106.4 61.9399L106.65 62.0399C106.81 62.0399 106.88 61.9399 106.87 61.7699H106.63V61.6699C106.613 61.5013 106.644 61.3313 106.72 61.1799C106.891 61.0272 107.026 60.8388 107.116 60.6279C107.206 60.4171 107.248 60.189 107.24 59.9599C107.31 59.9599 107.35 59.9599 107.36 60.0699C107.69 59.8799 107.94 59.3899 108.12 58.5699C109.092 56.5484 109.917 54.4597 110.59 52.3199C112.64 46.7999 112.59 46.2199 112.84 44.9099H112.6C112.618 45.0753 112.587 45.2424 112.51 45.3899C112.387 45.3339 112.255 45.3033 112.12 45.2999V45.1999C112.13 44.5784 112.344 43.9774 112.73 43.4899H112.84L113.05 44.2899H113.29C113.33 43.9526 113.393 43.6184 113.48 43.2899C113.48 43.1699 113.38 43.0899 113.19 43.0799L112.96 43.2299C112.96 43.0599 112.96 42.6199 112.96 41.9299H112.84C112.679 41.8011 112.566 41.6213 112.52 41.4199L111.19 41.5499C111.165 41.4053 111.114 41.2664 111.04 41.1399C111.04 41.0199 111.33 40.8999 111.94 40.7799L112.21 40.8799L112.46 40.7299C112.46 40.8099 112.52 40.8499 112.61 40.8399L112.86 40.6899C112.86 40.7699 112.92 40.8099 113.01 40.7999H113.13V40.5299C112.94 40.5299 112.45 40.5299 111.67 40.5299L111.42 40.6999V40.5499C105.167 41.0632 101.617 41.3599 100.77 41.4399C100.66 41.4399 100.22 41.4399 99.45 41.4399C99.45 41.5399 99.37 41.5999 99.18 41.6199L98.91 41.4999L98 41.7299C97.6407 41.7621 97.2793 41.7621 96.92 41.7299C96.7739 41.8463 96.5962 41.916 96.41 41.9299L99.08 41.7599C98.8877 41.8904 98.6622 41.9632 98.43 41.9699C98.2483 41.9946 98.0634 41.9632 97.9 41.8799C97.2447 42.0817 96.5765 42.2387 95.9 42.3499L95.63 42.2499L91.27 42.9199C91.0855 42.8356 90.8812 42.8044 90.68 42.8299C90.2871 42.8814 89.8992 42.965 89.52 43.0799L87.41 43.9599L87.57 44.2199C87.7232 44.1924 87.8694 44.1346 88 44.0499L88.75 44.1199L88.66 44.8199C88.3418 44.8778 88.0439 45.0169 87.7952 45.2236C87.5464 45.4303 87.3552 45.6977 87.24 45.9999C86.24 46.4599 85.69 46.7799 85.69 46.9999V47.1199H85.85L86.13 46.9699L86.46 47.3599V47.8999C86.46 48.0666 84.7233 51.7332 81.25 58.8999C78.25 65.7999 76.65 69.5699 76.5 70.2499C75.5 70.5399 74.87 70.9599 74.69 71.5199C74.69 71.6999 75.02 71.8199 75.61 71.8599V72.1299L75.34 72.5799V73.1199C75.34 73.3999 76.0933 73.6132 77.6 73.7599C77.6 73.6699 77.6 73.6099 77.74 73.5999C77.7298 74.2756 77.6358 74.9474 77.46 75.5999H77.62C78.0719 75.1187 78.3772 74.5185 78.5 73.8699H78.63C78.78 73.8699 78.94 74.0299 79.12 74.3899C78.9333 74.4632 78.2667 75.9466 77.12 78.8399L77.28 79.0999H77.44C78.8067 75.6332 79.6666 73.7166 80.02 73.3499C81.82 73.1899 84.93 72.8566 89.35 72.3499L89.63 72.1799C89.629 72.2009 89.633 72.2219 89.6419 72.241C89.6508 72.2601 89.6641 72.2767 89.6809 72.2895C89.6976 72.3023 89.7172 72.3109 89.7379 72.3144C89.7587 72.318 89.78 72.3164 89.8 72.3099H90.09L90.37 72.1399C90.369 72.1609 90.373 72.1819 90.3819 72.201C90.3908 72.2201 90.4041 72.2367 90.4209 72.2495C90.4376 72.2623 90.4572 72.2709 90.4779 72.2744C90.4987 72.278 90.52 72.2764 90.54 72.2699L94 71.8699C94.89 71.7999 95.3 71.5299 95.27 71.0699C95.27 70.9499 95.78 70.8099 96.84 70.6599C96.9969 70.6582 97.1529 70.6853 97.3 70.7399C97.3 70.6599 97.82 70.5699 98.88 70.4799C98.88 69.9199 99.08 69.6199 99.4 69.5899V69.3199C99.0592 69.3593 98.7238 69.4364 98.4 69.5499C97.9522 69.5443 97.5063 69.4907 97.07 69.3899C96.9387 69.4732 96.7928 69.5309 96.64 69.5599L94.31 69.6299L94.03 69.7799C94.03 69.6932 93.9733 69.6566 93.86 69.6699H93.73L93.43 69.8199C93.43 69.7399 93.18 69.6699 92.69 69.6099L92.39 69.7899H91.81V69.6999C94.81 69.3732 96.29 68.9666 96.25 68.4799C96.2896 68.4704 96.3309 68.4704 96.3706 68.4798C96.4102 68.4892 96.4471 68.5078 96.4782 68.534C96.5094 68.5603 96.5339 68.5935 96.5498 68.631C96.5658 68.6685 96.5727 68.7093 96.57 68.7499L97.45 68.5299V68.2599L90.27 68.4599C90.27 68.5499 90.27 68.6099 90.13 68.6199L89.25 68.5499C89.0481 68.5618 88.8537 68.6312 88.69 68.7499L88.36 68.6299C87.6839 68.6719 87.0138 68.7824 86.36 68.9599C85.6944 68.9075 85.0256 68.9075 84.36 68.9599L82.75 69.0999L81.9 68.9999C81.9 68.5199 82.79 66.1899 84.69 61.9999C84.9714 61.0037 85.5013 60.0952 86.23 59.3599C86.3896 59.3621 86.5467 59.3997 86.69 59.4699L87.84 59.0799L88.43 59.1699C89.6125 59.0404 90.7726 58.7546 91.88 58.3199C92.132 58.284 92.389 58.308 92.63 58.3899L93.51 58.1799L96.09 57.9999C97.3196 57.8832 98.5332 57.6351 99.71 57.2599V56.9899C99.23 56.9899 98.97 56.9899 98.96 56.7599C98.96 56.3999 98.58 56.2499 97.9 56.2999V56.0299L98.62 55.8199L100.5 55.6599V55.3899C100.43 55.3899 100.04 55.3899 99.34 55.3899V55.0999L100.07 55.0299C100.27 55.0299 100.35 54.9199 100.33 54.7299C99.33 54.7299 98.86 54.7299 98.85 54.5799C92.03 54.9132 88.61 54.9766 88.59 54.7699C88.4353 54.8035 88.289 54.8681 88.16 54.9599L87.98 54.6799C89.7867 50.8399 90.8467 48.9066 91.16 48.8799C91.1417 49.1334 91.0665 49.3795 90.94 49.5999V49.7199H91.23C91.95 48.0099 92.55 47.1199 93.06 47.0799C95.2 46.8899 92.76 46.7499 97.35 46.0799C97.4758 46.1491 97.6164 46.1868 97.76 46.1899C99.56 45.8232 102.067 45.4432 105.28 45.0499V44.7799L103.57 44.9399V44.6699C103.756 44.656 103.934 44.5863 104.08 44.4699V44.6199C104.222 44.5859 104.355 44.521 104.47 44.4299C104.7 44.3917 104.935 44.4194 105.15 44.5099C105.622 44.3778 106.103 44.2809 106.59 44.2199L107.66 44.1199C107.92 43.9499 108.04 43.7999 108.03 43.6599V43.5399C107.715 43.5639 107.399 43.5437 107.09 43.4799C107.086 43.4444 107.089 43.4084 107.099 43.3741C107.108 43.3397 107.125 43.3077 107.147 43.2798C107.17 43.2519 107.197 43.2287 107.229 43.2115C107.26 43.1944 107.294 43.1836 107.33 43.1799L109.33 42.9899L110.24 42.7599C110.24 42.8599 110.3 42.8999 110.37 42.8999C110.512 42.8659 110.645 42.801 110.76 42.7099H110.91C110.749 43.0623 110.615 43.4267 110.51 43.7999H110.25C110.236 43.6307 110.185 43.4667 110.1 43.3199H109.97C107.55 50.0699 106.47 53.2099 104.23 58.3899C103.82 59.7099 103.48 60.4499 103.18 60.6099C103.179 60.6422 103.186 60.6744 103.199 60.7038C103.213 60.7331 103.233 60.759 103.258 60.7793C103.283 60.7997 103.313 60.8139 103.344 60.8209C103.376 60.828 103.409 60.8276 103.44 60.8199C103.492 61.4955 103.331 62.1702 102.98 62.7499C101.98 65.7499 101.26 67.3599 100.9 67.6599L101 68.9999C101.004 69.0312 101.002 69.0631 100.993 69.0933C100.984 69.1236 100.968 69.1515 100.947 69.1753C100.926 69.199 100.901 69.2179 100.872 69.2308C100.843 69.2437 100.812 69.2502 100.78 69.2499H100.54C100.54 68.8599 100.36 68.6699 100.11 68.6999H99.98C99.6445 69.2284 99.4011 69.81 99.26 70.4199H99.5C99.6389 70.3511 99.7551 70.2438 99.8349 70.1109C99.9147 69.9779 99.9546 69.8249 99.95 69.6699H100.43L100.71 69.7699C100.521 70.0143 100.413 70.3113 100.4 70.6199L100.53 70.8399L100.21 71.5899V71.7099C100.533 71.6968 100.852 71.788 101.12 71.9699C101.388 71.9328 101.642 71.8297 101.86 71.6699C102.14 71.6699 103.18 71.6699 104.98 71.6699L105.88 71.3599C106.624 71.3763 107.368 71.3529 108.11 71.2899H108.5L108.71 71.1499V71.2699C109.323 71.2002 109.944 71.2238 110.55 71.3399V71.4599H110V71.6899C110.161 71.6794 110.314 71.6201 110.44 71.5199C110.58 71.5199 110.66 71.5899 110.67 71.7499C110.414 71.777 110.162 71.834 109.92 71.9199L109.68 71.8399C109.3 71.9399 109.38 71.9699 109.12 71.9899L108.74 71.9199C108.743 71.9333 108.743 71.9472 108.74 71.9605C108.737 71.9739 108.731 71.9863 108.722 71.9969C108.713 72.0075 108.702 72.016 108.69 72.0217C108.677 72.0275 108.664 72.0303 108.65 72.0299C108.648 72.0597 108.653 72.0896 108.664 72.1173C108.675 72.145 108.693 72.1698 108.715 72.1899C108.737 72.2101 108.763 72.225 108.792 72.2337C108.82 72.2423 108.85 72.2444 108.88 72.2399H109.27L111.27 72.0599L112.04 71.8899C112.04 71.9599 112.04 71.9899 112.14 71.9799L112.51 71.8399L113.21 71.7799C113.75 71.7799 113.74 71.6999 114.92 71.5099C114.92 71.4399 114.92 71.4099 114.99 71.3999V71.4999C115.804 71.391 116.61 71.2239 117.4 70.9999V71.0599C117.88 70.9499 117.61 70.9799 117.74 70.8799C117.74 70.9599 117.74 70.9999 117.82 70.9999H118.16V70.7499H117.48H117.41H117.32C117.069 70.7968 116.815 70.8169 116.56 70.8099L114.85 70.8999V70.7799L115.85 70.6499H116.19L116.39 70.5099V70.6299C117.73 70.5199 118.21 70.8499 124.39 69.5299C124.73 69.5299 124.7 69.2199 124.91 68.6399C124.795 68.6498 124.681 68.6254 124.58 68.5699C123.999 68.7109 123.407 68.798 122.81 68.8299C122.73 68.8299 122.66 68.7599 122.63 68.6199V68.5199H123.63C123.984 68.4822 124.326 68.3661 124.63 68.1799C124.63 68.2599 124.43 68.3099 124.55 68.2999L124.49 68.2299ZM78.61 68.9999H78.17C78.3165 68.306 78.5518 67.6338 78.87 66.9999H79.16C79.0687 67.6885 78.8836 68.3614 78.61 68.9999ZM79.14 66.8799V66.7599C79.14 66.6099 79.22 66.5099 79.43 66.4599V66.5799C79.43 66.7599 79.35 66.8599 79.14 66.8799ZM85 71.3999V71.5199L84.27 71.5899V71.4699L85 71.3999ZM84.12 71.3299C84.12 71.4799 83.91 71.6499 83.42 71.8099L82.53 71.7399H82.24V71.4699L84.15 71.2899L84.12 71.3299ZM90 44.2199H89.56V44.0699C89.56 43.9199 89.63 43.8199 89.82 43.7699H89.98L90.28 43.8899C90.286 43.9281 90.2834 43.9672 90.2724 44.0042C90.2614 44.0413 90.2422 44.0754 90.2164 44.1042C90.1905 44.1329 90.1586 44.1555 90.1229 44.1703C90.0872 44.1852 90.0486 44.1919 90.01 44.1899L90 44.2199ZM96.66 42.9199H96.8V43.1899H96.4C96.3958 43.1544 96.3987 43.1184 96.4086 43.0841C96.4184 43.0497 96.435 43.0177 96.4573 42.9898C96.4796 42.9619 96.5073 42.9387 96.5386 42.9215C96.57 42.9044 96.6044 42.8936 96.64 42.8899L96.66 42.9199ZM95 43.4999L94.34 43.4299V43.2999C94.9032 43.2658 95.4604 43.1651 96 42.9999C96 43.0999 96.1 43.1399 96.27 43.1199V43.3899H96.01C95.8283 43.4146 95.6434 43.3832 95.48 43.2999C95.3278 43.4035 95.1528 43.4687 94.97 43.4899L95 43.4999ZM95.83 45.9099V45.7899L96.9 45.6899V45.8099L95.83 45.9099ZM96.94 44.9999V44.8499H97.46V44.9999H96.94ZM97.06 43.1699H96.92L97.04 42.8799L98.23 42.7699V42.9199C97.8306 42.9668 97.4359 43.0471 97.05 43.1599L97.06 43.1699ZM97.67 45.7399V45.4699H98.19C98.37 45.4699 98.4633 45.5532 98.47 45.7199L97.69 45.7899L97.67 45.7399ZM100.83 41.4399L100.16 41.6299H100C99.5974 41.6656 99.1925 41.6656 98.79 41.6299C99.66 41.5699 100.49 41.5099 100.79 41.4599L100.83 41.4399ZM100.11 44.4399V44.5599L99.19 44.6399V44.5199L100.11 44.4399ZM101.62 45.1599C101.62 45.0499 101.43 44.9699 101.07 44.9399L100.15 45.1999H99.44C99.28 45.0899 99.2 45.0099 99.19 44.9599H100.01L101.85 44.6599H102.79V44.8099C102.389 44.8446 101.993 44.9252 101.61 45.0499L101.62 45.1599ZM111.11 42.7099H111.32C111.639 42.3921 112.016 42.1376 112.43 41.9599C112.225 43.176 111.681 44.3094 110.86 45.2299L110.34 44.9099C110.648 44.1886 110.905 43.4468 111.11 42.6899V42.7099ZM109.51 45.4599H109.64C109.46 45.7999 109.3 45.9699 109.17 45.9799V45.6299C109.302 45.6078 109.425 45.5528 109.53 45.4699L109.51 45.4599ZM108.51 47.9299C108.59 47.302 108.839 46.7076 109.23 46.2099V46.3299C109.1 47.2599 108.89 47.7599 108.62 47.7899V48.3799C108.437 48.5899 108.325 48.8524 108.3 49.1299H108.17L108.1 48.3199C108.25 48.3199 108.37 48.1699 108.45 47.9299H108.51ZM108.11 49.2699C108.071 49.615 107.98 49.9523 107.84 50.2699H107.71V49.9199C107.89 49.5099 108.04 49.2999 108.14 49.2999L108.11 49.2699ZM100.59 71.0899V70.9899H100.83V71.3399C100.7 71.3399 100.61 71.2699 100.57 71.1099L100.59 71.0899ZM111.33 71.3699C111.33 71.2899 111.33 71.2499 111.2 71.2599L110.59 71.3199V71.1999H110.65L112 70.9999V71.1199C111.737 71.1 111.475 71.163 111.25 71.2999L111.33 71.3699ZM110.61 71.0699C110.67 71.0699 110.61 71.1299 110.61 71.1399C110.61 71.1499 110.54 71.1399 110.61 71.0699ZM110.68 69.3899L109.88 69.4599V69.2999L110.61 69.2299L111.24 69.0699C111.24 69.1399 111.24 69.1699 111.37 69.1599C112.12 69.0299 112.05 68.9899 112.37 68.9599C112.49 68.9599 112.57 69.0299 112.58 69.1699L110.65 69.3399L110.68 69.3899ZM113.48 69.1499C113.22 69.0972 112.955 69.077 112.69 69.0899V68.9999L113.41 68.9299V68.9999C113.34 68.9999 113.61 68.9999 113.48 69.1199V69.1499ZM113.54 69.0199V68.9199H113.93V69.0199H113.54ZM114.41 68.9499V68.8499C114.514 68.8227 114.61 68.7713 114.69 68.6999C114.728 68.6943 114.767 68.6967 114.805 68.707C114.842 68.7173 114.877 68.7352 114.907 68.7597C114.937 68.7841 114.962 68.8145 114.98 68.849C114.997 68.8834 115.008 68.9212 115.01 68.9599L114.41 68.9499ZM115.52 68.8099V68.6899H116V68.8099H115.52ZM116.18 68.7499C116.18 68.6099 116.18 68.5299 116.35 68.5099L116.51 68.7199C116.507 68.7081 116.507 68.6958 116.509 68.6837C116.51 68.6717 116.515 68.6602 116.521 68.6499C116.528 68.6396 116.537 68.6308 116.547 68.6239C116.557 68.617 116.568 68.6123 116.58 68.6099L116.7 68.8299L116.18 68.7599V68.7499ZM125.52 67.5499C125.59 67.5499 125.63 67.4599 125.45 67.4299C125.27 67.3999 125.54 67.5499 125.36 67.5599V67.6399L125.46 67.5699L125.36 67.6499L125.16 67.8999L125.55 67.7599V67.5299L125.52 67.5499ZM126.2 68.0799H126.13V68.3099H126.68C126.68 68.1599 126.31 68.1099 126.19 68.1099L126.2 68.0799Z" fill="#F9DC3E"/>
</svg>
