<svg width="300" height="82" viewBox="0 0 300 82" fill="none" xmlns="http://www.w3.org/2000/svg">
<path d="M29.9907 27.2862C27.719 27.2862 25.7616 26.6677 24.1182 25.4307C22.4749 24.1695 21.4478 22.5323 21.037 20.5192L23.5382 19.4278C23.8766 20.9315 24.6378 22.1564 25.822 23.1023C27.0303 24.0482 28.444 24.5212 30.0632 24.5212C31.7549 24.5212 33.1324 24.0361 34.1957 23.0659C35.2832 22.0715 35.8269 20.7981 35.8269 19.2458C35.8269 18.4455 35.6699 17.7785 35.3557 17.2449C35.0415 16.687 34.4978 16.1655 33.7245 15.6805C32.9511 15.1954 31.8515 14.6618 30.4257 14.0797C28.009 13.0852 26.2691 12.0544 25.2057 10.9872C24.1424 9.89579 23.6107 8.62243 23.6107 7.16717C23.6107 6.00296 23.9128 4.94789 24.517 4.00197C25.1453 3.0318 25.9911 2.27991 27.0545 1.74631C28.1178 1.18846 29.302 0.909539 30.607 0.909539C31.7428 0.909539 32.7699 1.1157 33.6882 1.52803C34.6307 1.94035 35.3678 2.51033 35.8994 3.23796C36.4553 3.94134 36.7332 4.71747 36.7332 5.56638C36.7332 6.60932 36.3949 7.45822 35.7182 8.11309C35.0415 8.76796 34.1836 9.09539 33.1445 9.09539C32.8303 9.09539 32.5886 9.08326 32.4195 9.05901L32.637 6.58506C32.782 6.63357 32.8907 6.65783 32.9632 6.65783C33.2049 6.65783 33.4103 6.56081 33.5795 6.36677C33.7728 6.14848 33.8695 5.89381 33.8695 5.60276C33.8695 5.06916 33.5553 4.62046 32.927 4.25664C32.2986 3.86857 31.5495 3.67454 30.6795 3.67454C29.5678 3.67454 28.6011 4.00197 27.7795 4.65684C26.9578 5.31171 26.547 6.09998 26.547 7.02164C26.547 7.84629 26.9578 8.62243 27.7795 9.35006C28.6011 10.0534 29.8578 10.7568 31.5495 11.4602C34.1353 12.5274 35.9961 13.6673 37.1319 14.8801C38.2678 16.0685 38.8357 17.5117 38.8357 19.2095C38.8357 20.7375 38.449 22.12 37.6757 23.357C36.9024 24.5697 35.839 25.5277 34.4857 26.2311C33.1565 26.9345 31.6582 27.2862 29.9907 27.2862Z" fill="white"/>
<path d="M57.3724 23.3206C57.3724 23.5874 57.457 23.8178 57.6262 24.0118C57.7953 24.1816 58.0128 24.2665 58.2787 24.2665C58.6653 24.2665 58.9674 24.0482 59.1849 23.6116L61.3237 24.9578C60.9853 25.5884 60.5383 26.0856 59.9824 26.4494C59.4508 26.789 58.8224 26.9587 58.0974 26.9587C56.9616 26.9587 56.0553 26.6313 55.3787 25.9764C54.7262 25.2973 54.3999 24.3756 54.3999 23.2114V13.8978C54.3999 11.5936 53.2278 10.4415 50.8837 10.4415C49.8204 10.4415 48.902 10.7083 48.1287 11.2419C47.3554 11.7512 46.5458 12.5638 45.6999 13.6795V26.4858H42.7275V0H45.6999V10.0413C47.2708 8.46478 49.0833 7.67651 51.1374 7.67651C53.1433 7.67651 54.6778 8.21011 55.7412 9.2773C56.8287 10.3445 57.3724 11.8483 57.3724 13.7886V23.3206Z" fill="white"/>
<path d="M66.7461 23.3206C66.7461 23.5874 66.8307 23.8178 66.9999 24.0118C67.1691 24.1816 67.3865 24.2665 67.6524 24.2665C68.039 24.2665 68.3411 24.0482 68.5586 23.6116L70.6974 24.9578C70.359 25.5884 69.912 26.0856 69.3561 26.4494C68.8245 26.789 68.1961 26.9587 67.4711 26.9587C66.3353 26.9587 65.4291 26.6313 64.7524 25.9764C64.0999 25.2973 63.7736 24.3756 63.7736 23.2114V8.33138H66.7461V23.3206ZM65.2236 4.80237C64.7403 4.80237 64.3053 4.60833 63.9186 4.22026C63.532 3.83219 63.3386 3.39561 63.3386 2.91052C63.3386 2.40118 63.532 1.95248 63.9186 1.56441C64.3053 1.17634 64.7403 0.982302 65.2236 0.982302C65.7311 0.982302 66.1782 1.17634 66.5649 1.56441C66.9757 1.95248 67.1811 2.40118 67.1811 2.91052C67.1811 3.39561 66.9757 3.83219 66.5649 4.22026C66.1782 4.60833 65.7311 4.80237 65.2236 4.80237Z" fill="white"/>
<path d="M91.7458 24.9578C91.4075 25.5884 90.9604 26.0856 90.4046 26.4494C89.8729 26.789 89.2446 26.9587 88.5196 26.9587C87.3838 26.9587 86.4775 26.6313 85.8009 25.9764C85.1484 25.2973 84.8221 24.3756 84.8221 23.2114V14.298C84.8221 13.0852 84.5684 12.1636 84.0609 11.533C83.5534 10.8781 82.6834 10.5507 81.4509 10.5507C80.3392 10.5507 79.3846 10.8175 78.5871 11.351C77.8138 11.8846 77.0163 12.6972 76.1946 13.7886V26.5949H73.2221V13.825C73.2221 11.9332 72.7146 10.5507 71.6996 9.6775L73.6934 7.82204C74.1042 8.04033 74.503 8.40414 74.8896 8.91348C75.2763 9.39857 75.5905 9.95642 75.8321 10.587C77.3305 8.76796 79.2638 7.85842 81.6321 7.85842C83.4205 7.85842 84.8704 8.34351 85.9821 9.31368C87.0938 10.2596 87.6979 11.6057 87.7946 13.352V23.3206C87.7946 23.5874 87.8792 23.8178 88.0484 24.0118C88.2175 24.1816 88.435 24.2665 88.7008 24.2665C89.0875 24.2665 89.3896 24.0482 89.6071 23.6116L91.7458 24.9578Z" fill="white"/>
<path d="M93.5391 35.7267C92.6932 35.7267 91.9682 35.5084 91.3641 35.0718C90.7357 34.6595 90.2403 34.1017 89.8778 33.3983L92.1616 31.9066C92.5241 32.61 93.0074 32.9617 93.6116 32.9617C94.1674 32.9617 94.4453 32.5615 94.4453 31.7611L94.4816 8.36776H97.3816V31.7611C97.3816 32.9981 97.007 33.9683 96.2578 34.6716C95.5328 35.375 94.6266 35.7267 93.5391 35.7267ZM95.8591 4.80237C95.3757 4.80237 94.9407 4.60833 94.5541 4.22026C94.1674 3.83219 93.9741 3.39561 93.9741 2.91052C93.9741 2.40118 94.1674 1.95248 94.5541 1.56441C94.9407 1.17634 95.3757 0.982302 95.8591 0.982302C96.3666 0.982302 96.8136 1.17634 97.2003 1.56441C97.6111 1.95248 97.8166 2.40118 97.8166 2.91052C97.8166 3.39561 97.6111 3.83219 97.2003 4.22026C96.8136 4.60833 96.3666 4.80237 95.8591 4.80237Z" fill="white"/>
<path d="M105.259 23.3206C105.259 23.5874 105.343 23.8178 105.513 24.0118C105.682 24.1816 105.899 24.2665 106.165 24.2665C106.552 24.2665 106.854 24.0482 107.071 23.6116L109.21 24.9578C108.872 25.5884 108.425 26.0856 107.869 26.4494C107.337 26.789 106.709 26.9587 105.984 26.9587C104.848 26.9587 103.942 26.6313 103.265 25.9764C102.613 25.2973 102.286 24.3756 102.286 23.2114V8.33138H105.259V23.3206ZM103.736 4.80237C103.253 4.80237 102.818 4.60833 102.431 4.22026C102.045 3.83219 101.851 3.39561 101.851 2.91052C101.851 2.40118 102.045 1.95248 102.431 1.56441C102.818 1.17634 103.253 0.982302 103.736 0.982302C104.244 0.982302 104.691 1.17634 105.078 1.56441C105.488 1.95248 105.694 2.40118 105.694 2.91052C105.694 3.39561 105.488 3.83219 105.078 4.22026C104.691 4.60833 104.244 4.80237 103.736 4.80237Z" fill="white"/>
<path d="M123.328 26.9951C122.651 26.9951 122.011 26.8132 121.406 26.4494C120.826 26.0856 120.367 25.6005 120.029 24.9941L122.168 23.5389C122.409 23.9755 122.724 24.1937 123.11 24.1937C123.376 24.1937 123.594 24.1089 123.763 23.9391C123.932 23.745 124.016 23.5267 124.016 23.2842V1.60079H125.974L129.998 6.14848L141.126 20.6647L140.981 20.119L140.873 1.63717H143.918V26.5949H142.54L126.554 6.54868L126.953 7.4946L127.025 23.2842C127.025 24.3271 126.651 25.2124 125.901 25.9401C125.152 26.6434 124.294 26.9951 123.328 26.9951Z" fill="white"/>
<path d="M152.48 23.3206C152.48 23.5874 152.565 23.8178 152.734 24.0118C152.903 24.1816 153.12 24.2665 153.386 24.2665C153.773 24.2665 154.075 24.0482 154.293 23.6116L156.431 24.9578C156.093 25.5884 155.646 26.0856 155.09 26.4494C154.558 26.789 153.93 26.9587 153.205 26.9587C152.069 26.9587 151.163 26.6313 150.486 25.9764C149.834 25.2973 149.508 24.3756 149.508 23.2114V8.33138H152.48V23.3206ZM150.958 4.80237C150.474 4.80237 150.039 4.60833 149.653 4.22026C149.266 3.83219 149.073 3.39561 149.073 2.91052C149.073 2.40118 149.266 1.95248 149.653 1.56441C150.039 1.17634 150.474 0.982302 150.958 0.982302C151.465 0.982302 151.912 1.17634 152.299 1.56441C152.71 1.95248 152.915 2.40118 152.915 2.91052C152.915 3.39561 152.71 3.83219 152.299 4.22026C151.912 4.60833 151.465 4.80237 150.958 4.80237Z" fill="white"/>
<path d="M164.421 26.9224C161.763 26.9224 159.419 25.9037 157.389 23.8663L159.093 21.8653C160.011 22.6657 160.881 23.2599 161.702 23.648C162.524 24.0118 163.394 24.1937 164.312 24.1937C165.497 24.1937 166.427 23.9391 167.104 23.4297C167.805 22.8961 168.155 22.1685 168.155 21.2468C168.155 20.689 168.01 20.2403 167.72 19.9007C167.454 19.5612 167.055 19.2701 166.524 19.0276C166.016 18.7608 165.158 18.3848 163.95 17.8997C162.621 17.3661 161.582 16.9053 160.833 16.5172C160.108 16.1049 159.528 15.5956 159.093 14.9892C158.658 14.3586 158.44 13.5825 158.44 12.6608C158.44 11.157 158.972 9.94429 160.035 9.02263C161.098 8.10096 162.476 7.64013 164.167 7.64013C165.158 7.64013 166.149 7.80991 167.14 8.14947C168.155 8.46478 168.952 8.8771 169.532 9.38644L168.264 11.533C167.176 10.7326 165.907 10.3324 164.457 10.3324C163.539 10.3324 162.802 10.5264 162.246 10.9145C161.715 11.2783 161.449 11.7876 161.449 12.4425C161.449 13.1216 161.715 13.6552 162.246 14.0433C162.802 14.4071 163.745 14.8558 165.074 15.3894C166.572 15.9958 167.744 16.5415 168.59 17.0266C169.436 17.5117 170.076 18.0816 170.511 18.7365C170.946 19.3671 171.164 20.1675 171.164 21.1377C171.164 22.8598 170.535 24.2544 169.279 25.3216C168.022 26.3888 166.403 26.9224 164.421 26.9224Z" fill="white"/>
<path d="M189.088 23.3206C189.088 23.5874 189.173 23.8178 189.342 24.0118C189.511 24.1816 189.729 24.2665 189.995 24.2665C190.381 24.2665 190.683 24.0482 190.901 23.6116L193.04 24.9578C192.701 25.5884 192.254 26.0856 191.698 26.4494C191.167 26.789 190.538 26.9587 189.813 26.9587C188.678 26.9587 187.771 26.6313 187.095 25.9764C186.442 25.2973 186.116 24.3756 186.116 23.2114V13.8978C186.116 11.5936 184.944 10.4415 182.6 10.4415C181.536 10.4415 180.618 10.7083 179.845 11.2419C179.071 11.7512 178.262 12.5638 177.416 13.6795V26.4858H174.444V0H177.416V10.0413C178.987 8.46478 180.799 7.67651 182.853 7.67651C184.859 7.67651 186.394 8.21011 187.457 9.2773C188.545 10.3445 189.088 11.8483 189.088 13.7886V23.3206Z" fill="white"/>
<path d="M198.462 23.3206C198.462 23.5874 198.547 23.8178 198.716 24.0118C198.885 24.1816 199.103 24.2665 199.368 24.2665C199.755 24.2665 200.057 24.0482 200.275 23.6116L202.413 24.9578C202.075 25.5884 201.628 26.0856 201.072 26.4494C200.541 26.789 199.912 26.9587 199.187 26.9587C198.051 26.9587 197.145 26.6313 196.468 25.9764C195.816 25.2973 195.49 24.3756 195.49 23.2114V8.33138H198.462V23.3206ZM196.94 4.80237C196.456 4.80237 196.021 4.60833 195.635 4.22026C195.248 3.83219 195.055 3.39561 195.055 2.91052C195.055 2.40118 195.248 1.95248 195.635 1.56441C196.021 1.17634 196.456 0.982302 196.94 0.982302C197.447 0.982302 197.894 1.17634 198.281 1.56441C198.692 1.95248 198.897 2.40118 198.897 2.91052C198.897 3.39561 198.692 3.83219 198.281 4.22026C197.894 4.60833 197.447 4.80237 196.94 4.80237Z" fill="white"/>
<path d="M219.72 23.3206C219.72 23.5874 219.804 23.8178 219.973 24.0118C220.143 24.1816 220.36 24.2665 220.626 24.2665C221.013 24.2665 221.315 24.0482 221.532 23.6116L223.671 24.9578C223.333 25.5884 222.885 26.0856 222.33 26.4494C221.798 26.789 221.17 26.9587 220.445 26.9587C219.309 26.9587 218.403 26.6313 217.726 25.9764C217.073 25.2973 216.747 24.3756 216.747 23.2114V13.8978C216.747 11.5936 215.575 10.4415 213.231 10.4415C212.168 10.4415 211.249 10.7083 210.476 11.2419C209.703 11.7512 208.893 12.5638 208.047 13.6795V26.4858H205.075V0H208.047V10.0413C209.618 8.46478 211.43 7.67651 213.485 7.67651C215.49 7.67651 217.025 8.21011 218.088 9.2773C219.176 10.3445 219.72 11.8483 219.72 13.7886V23.3206Z" fill="white"/>
<path d="M232.047 26.9224C230.427 26.9224 229.026 26.4979 227.842 25.649C226.682 24.7758 225.787 23.6116 225.159 22.1564C224.555 20.7011 224.253 19.1246 224.253 17.4268C224.253 15.5834 224.603 13.9341 225.304 12.4789C226.005 11.0236 227.032 9.87153 228.385 9.02263C229.763 8.17372 231.406 7.74927 233.315 7.74927C233.871 7.74927 234.56 7.78566 235.382 7.85842C236.227 7.90693 236.94 7.97969 237.52 8.07671H239.949V23.1751C239.949 23.5146 240.022 23.7814 240.167 23.9755C240.336 24.1452 240.577 24.2301 240.892 24.2301C241.302 24.2301 241.629 24.024 241.87 23.6116L243.9 24.9578C243.586 25.5641 243.127 26.0492 242.523 26.413C241.943 26.7526 241.314 26.9224 240.638 26.9224C239.744 26.9224 238.97 26.6677 238.318 26.1583C237.689 25.6247 237.351 25.0063 237.303 24.3029V24.3393C236.892 25.1397 236.203 25.7703 235.237 26.2311C234.27 26.6919 233.207 26.9224 232.047 26.9224ZM232.264 24.2301C233.231 24.2301 234.089 23.9755 234.838 23.4661C235.587 22.9568 236.155 22.314 236.542 21.5379C236.759 21.1256 236.88 20.7739 236.904 20.4828C236.952 20.1918 236.977 19.8643 236.977 19.5005V10.6962L235.454 10.587C234.246 10.49 233.436 10.4415 233.025 10.4415C231.189 10.4415 229.763 11.0964 228.748 12.4061C227.733 13.7158 227.225 15.3773 227.225 17.3904C227.225 19.258 227.672 20.8709 228.567 22.2291C229.461 23.5631 230.693 24.2301 232.264 24.2301Z" fill="white"/>
<path d="M253.869 7.74927C254.57 7.74927 255.404 7.87055 256.371 8.11309L256.298 10.9872C255.331 10.7204 254.546 10.587 253.942 10.587C252.806 10.587 251.924 10.8538 251.296 11.3874C250.571 11.9695 249.942 12.7457 249.411 13.7159V26.5949H246.438V13.7159C246.438 11.824 245.931 10.4415 244.916 9.56835L246.909 7.71289C247.272 7.93118 247.634 8.25862 247.997 8.69519C248.383 9.13177 248.698 9.62899 248.939 10.1868C249.471 9.50772 250.015 8.98625 250.571 8.62243C251.489 8.04033 252.588 7.74927 253.869 7.74927Z" fill="white"/>
<path d="M265.014 26.9224C263.395 26.9224 261.993 26.4979 260.809 25.649C259.649 24.7758 258.755 23.6116 258.127 22.1564C257.523 20.7011 257.22 19.1246 257.22 17.4268C257.22 15.5834 257.571 13.9341 258.272 12.4789C258.973 11.0236 260 9.87153 261.353 9.02263C262.73 8.17372 264.374 7.74927 266.283 7.74927C266.839 7.74927 267.528 7.78566 268.349 7.85842C269.195 7.90693 269.908 7.97969 270.488 8.07671H272.917V23.1751C272.917 23.5146 272.989 23.7814 273.134 23.9755C273.303 24.1452 273.545 24.2301 273.859 24.2301C274.27 24.2301 274.596 24.024 274.838 23.6116L276.868 24.9578C276.554 25.5641 276.095 26.0492 275.49 26.413C274.91 26.7526 274.282 26.9224 273.605 26.9224C272.711 26.9224 271.938 26.6677 271.285 26.1583C270.657 25.6247 270.319 25.0063 270.27 24.3029V24.3393C269.86 25.1397 269.171 25.7703 268.204 26.2311C267.238 26.6919 266.174 26.9224 265.014 26.9224ZM265.232 24.2301C266.198 24.2301 267.056 23.9755 267.805 23.4661C268.555 22.9568 269.123 22.314 269.509 21.5379C269.727 21.1256 269.848 20.7739 269.872 20.4828C269.92 20.1918 269.944 19.8643 269.944 19.5005V10.6962L268.422 10.587C267.213 10.49 266.404 10.4415 265.993 10.4415C264.156 10.4415 262.73 11.0964 261.715 12.4061C260.7 13.7158 260.193 15.3773 260.193 17.3904C260.193 19.258 260.64 20.8709 261.534 22.2291C262.428 23.5631 263.661 24.2301 265.232 24.2301Z" fill="white"/>
<path d="M0 47.583H2.97249V72.5772H0V47.583Z" fill="white"/>
<path d="M8.49579 54.059C9.17245 53.3556 9.51079 52.5552 9.51079 51.6578C9.51079 51.2697 9.45037 50.8695 9.32954 50.4572C9.23287 50.0206 9.17245 49.7053 9.14829 49.5113L9.07579 49.1475C9.00329 48.6624 9.12412 48.2379 9.43829 47.8741C9.75245 47.5103 10.1633 47.3284 10.6708 47.3284C11.0333 47.3284 11.3474 47.4496 11.6133 47.6922C11.8791 47.9347 12.0483 48.25 12.1208 48.6381L12.157 48.9655C12.2537 49.5962 12.302 50.0691 12.302 50.3844C12.302 50.7968 12.2416 51.3303 12.1208 51.9852C11.9999 52.5673 11.7583 53.1373 11.3958 53.6952C11.0575 54.253 10.6466 54.7502 10.1633 55.1868L8.49579 54.059Z" fill="white"/>
<path d="M45.5432 70.94C45.2049 71.5706 44.7578 72.0678 44.202 72.4316C43.6703 72.7712 43.042 72.941 42.317 72.941C41.1811 72.941 40.2749 72.6136 39.5982 71.9587C38.9457 71.2796 38.6195 70.3579 38.6195 69.1937V59.8073C38.5228 58.6188 38.2328 57.782 37.7495 57.2969C37.2661 56.8118 36.5411 56.5693 35.5745 56.5693C34.6078 56.5693 33.7378 56.8118 32.9645 57.2969C32.2153 57.7578 31.5507 58.5581 30.9707 59.6981V72.5772H27.9982V60.2802C27.9982 59.0917 27.7445 58.1822 27.237 57.5516C26.7295 56.8967 25.9803 56.5693 24.9895 56.5693C23.9987 56.5693 23.0803 56.8603 22.2345 57.4424C21.3887 58.0003 20.7724 58.7158 20.3858 59.589V72.5772H17.4133V59.8073C17.4133 57.9154 16.9058 56.5329 15.8908 55.6597L17.8845 53.8043C18.2712 54.0226 18.6578 54.3743 19.0445 54.8594C19.4312 55.3202 19.7453 55.8538 19.987 56.4601C20.6637 55.6597 21.4491 55.0291 22.3433 54.5683C23.2374 54.1075 24.1799 53.8771 25.1707 53.8771C26.2341 53.8771 27.2128 54.1438 28.107 54.6774C29.0012 55.211 29.6899 55.9265 30.1732 56.824C30.8741 55.9265 31.6957 55.211 32.6382 54.6774C33.5807 54.1438 34.5716 53.8771 35.6107 53.8771C37.4232 53.8771 38.8732 54.3743 39.9607 55.3687C41.0482 56.3631 41.592 57.8184 41.592 59.7345V69.3028C41.592 69.5696 41.6765 69.8001 41.8457 69.9941C42.0149 70.1639 42.2324 70.2488 42.4982 70.2488C42.8849 70.2488 43.187 70.0305 43.4045 69.5939L45.5432 70.94Z" fill="white"/>
<path d="M59.7243 50.8574C59.5068 50.2268 59.1684 49.9964 58.7093 50.1661C58.5159 50.2146 58.383 50.3117 58.3105 50.4572L56.353 48.7473C56.7639 48.1409 57.3801 47.7043 58.2018 47.4375C58.6126 47.3162 58.9751 47.2556 59.2893 47.2556C60.0384 47.2556 60.703 47.4982 61.283 47.9832C61.863 48.4441 62.2739 49.1111 62.5155 49.9842L68.098 67.9567L68.243 69.3756L68.4243 67.9567L74.7317 47.5467H77.4142L83.613 67.9567L83.8667 69.4847L84.048 67.9567L90.3555 47.5467H93.3279L85.208 72.5772H82.5255L76.0367 52.6401L69.6205 72.5772H66.938L59.7243 50.8574Z" fill="white"/>
<path d="M102.145 72.9046C100.357 72.9046 98.822 72.5165 97.5411 71.7404C96.2845 70.94 95.3299 69.8728 94.6774 68.5388C94.0249 67.1806 93.6987 65.6647 93.6987 63.9911C93.6987 62.3418 94.0128 60.741 94.6412 59.1888C95.2695 57.6365 96.212 56.351 97.4687 55.3323C98.7253 54.3136 100.272 53.8043 102.109 53.8043C103.317 53.8043 104.441 54.0468 105.48 54.5319C106.519 54.9928 107.341 55.6719 107.945 56.5693C108.573 57.4424 108.887 58.4611 108.887 59.6253C108.887 61.4929 108.126 62.9603 106.604 64.0275C105.081 65.0947 103.099 65.604 100.659 65.5555L96.8887 65.4828C97.1545 66.9865 97.7345 68.1508 98.6286 68.9754C99.547 69.7758 100.755 70.176 102.254 70.176C104.211 70.176 106.072 69.5211 107.836 68.2114L109.467 70.2851C107.172 72.0315 104.731 72.9046 102.145 72.9046ZM100.659 62.9361C102.278 62.9361 103.559 62.6571 104.501 62.0993C105.444 61.5414 105.915 60.7047 105.915 59.589C105.915 58.5945 105.552 57.8305 104.827 57.2969C104.127 56.7633 103.281 56.4965 102.29 56.4965C101.178 56.4965 100.212 56.8361 99.3899 57.5152C98.5682 58.1701 97.9399 58.9947 97.5049 59.9892C97.0699 60.9836 96.8162 61.9659 96.7437 62.9361H100.659Z" fill="white"/>
<path d="M119.248 72.9046C118.04 72.9046 116.892 72.8318 115.804 72.6863C115.321 72.6378 114.777 72.5529 114.173 72.4316C113.569 72.2861 113.134 72.1649 112.868 72.0678V46.0914H115.841V55.4778C116.517 54.8957 117.266 54.4592 118.088 54.1681C118.934 53.8771 119.804 53.7315 120.698 53.7315C122.245 53.7315 123.61 54.1439 124.794 54.9685C126.003 55.7931 126.933 56.9331 127.586 58.3884C128.238 59.8436 128.564 61.4808 128.564 63.2999C128.564 65.0705 128.238 66.6834 127.586 68.1386C126.933 69.5696 125.906 70.7217 124.504 71.5949C123.127 72.468 121.375 72.9046 119.248 72.9046ZM119.212 70.176C121.483 70.176 123.115 69.5454 124.106 68.2842C125.096 67.0229 125.592 65.3736 125.592 63.3363C125.592 61.9053 125.362 60.6683 124.903 59.6253C124.468 58.5824 123.864 57.7941 123.091 57.2605C122.341 56.7027 121.508 56.4238 120.589 56.4238C119.574 56.4238 118.559 56.7876 117.544 57.5152C116.529 58.2671 115.961 59.2979 115.841 60.6076V69.9577L117.254 70.1032C117.738 70.1517 118.39 70.176 119.212 70.176Z" fill="white"/>
<path d="M152.194 72.8682C151.397 72.8682 150.491 72.844 149.476 72.7955C148.485 72.7712 147.711 72.747 147.156 72.7227L145.089 72.5044V50.2025C144.461 50.2025 144.026 50.3117 143.784 50.53C143.519 50.7482 143.362 51.1484 143.313 51.7305L140.594 51.6942C140.594 50.2389 141.042 49.1232 141.936 48.3471C142.661 47.6922 143.724 47.3648 145.126 47.3648L154.768 47.4011C157.064 47.4739 159.082 48.056 160.822 49.1475C162.562 50.2389 163.915 51.7305 164.882 53.6224C165.849 55.5142 166.332 57.6729 166.332 60.0983C166.332 64.3913 165.16 67.5929 162.816 69.703C160.496 71.8132 156.955 72.8682 152.194 72.8682ZM152.666 70.1396C156.194 70.1396 158.852 69.3028 160.641 67.6293C162.453 65.9315 163.359 63.4212 163.359 60.0983C163.359 58.0852 162.985 56.3389 162.236 54.8594C161.511 53.3556 160.471 52.2035 159.118 51.4031C157.765 50.5785 156.182 50.1661 154.369 50.1661H148.062V69.9577C148.545 70.0062 149.258 70.0547 150.201 70.1032C151.143 70.1275 151.965 70.1396 152.666 70.1396Z" fill="white"/>
<path d="M177.674 72.9046C175.885 72.9046 174.351 72.5165 173.07 71.7404C171.813 70.94 170.859 69.8728 170.206 68.5388C169.554 67.1806 169.227 65.6647 169.227 63.9911C169.227 62.3418 169.542 60.741 170.17 59.1888C170.798 57.6365 171.741 56.351 172.997 55.3323C174.254 54.3136 175.801 53.8043 177.637 53.8043C178.846 53.8043 179.969 54.0468 181.009 54.5319C182.048 54.9928 182.869 55.6719 183.474 56.5693C184.102 57.4424 184.416 58.4611 184.416 59.6253C184.416 61.4929 183.655 62.9603 182.132 64.0275C180.61 65.0947 178.628 65.604 176.187 65.5555L172.417 65.4828C172.683 66.9865 173.263 68.1508 174.157 68.9754C175.076 69.7758 176.284 70.176 177.782 70.176C179.74 70.176 181.601 69.5211 183.365 68.2114L184.996 70.2851C182.7 72.0315 180.259 72.9046 177.674 72.9046ZM176.187 62.9361C177.806 62.9361 179.087 62.6571 180.03 62.0993C180.972 61.5414 181.444 60.7047 181.444 59.589C181.444 58.5945 181.081 57.8305 180.356 57.2969C179.655 56.7633 178.809 56.4965 177.819 56.4965C176.707 56.4965 175.74 56.8361 174.919 57.5152C174.097 58.1701 173.469 58.9947 173.034 59.9892C172.599 60.9836 172.345 61.9659 172.272 62.9361H176.187Z" fill="white"/>
<path d="M188.107 57.6607C187.913 57.2242 187.623 56.824 187.237 56.4601C186.85 56.0721 186.463 55.8295 186.077 55.7325L187.672 53.2949C189.17 54.1439 190.294 55.5749 191.043 57.588L195.03 68.175L200.142 54.059H203.114L196.372 72.5772H193.725L188.107 57.6607Z" fill="white"/>
<path d="M213.084 72.9046C211.295 72.9046 209.761 72.5165 208.48 71.7404C207.223 70.94 206.269 69.8728 205.616 68.5388C204.964 67.1806 204.638 65.6647 204.638 63.9911C204.638 62.3418 204.952 60.741 205.58 59.1888C206.208 57.6365 207.151 56.351 208.408 55.3323C209.664 54.3136 211.211 53.8043 213.048 53.8043C214.256 53.8043 215.38 54.0468 216.419 54.5319C217.458 54.9928 218.28 55.6719 218.884 56.5693C219.512 57.4424 219.826 58.4611 219.826 59.6253C219.826 61.4929 219.065 62.9603 217.543 64.0275C216.02 65.0947 214.038 65.604 211.598 65.5555L207.828 65.4828C208.093 66.9865 208.673 68.1508 209.568 68.9754C210.486 69.7758 211.694 70.176 213.193 70.176C215.15 70.176 217.011 69.5211 218.775 68.2114L220.406 70.2851C218.11 72.0315 215.67 72.9046 213.084 72.9046ZM211.598 62.9361C213.217 62.9361 214.498 62.6571 215.44 62.0993C216.383 61.5414 216.854 60.7047 216.854 59.589C216.854 58.5945 216.491 57.8305 215.766 57.2969C215.065 56.7633 214.22 56.4965 213.229 56.4965C212.117 56.4965 211.15 56.8361 210.329 57.5152C209.507 58.1701 208.879 58.9947 208.444 59.9892C208.009 60.9836 207.755 61.9659 207.683 62.9361H211.598Z" fill="white"/>
<path d="M226.634 69.3028C226.634 69.5696 226.719 69.8001 226.888 69.9941C227.057 70.1639 227.275 70.2488 227.541 70.2488C227.927 70.2488 228.229 70.0305 228.447 69.5939L230.586 70.94C230.247 71.5706 229.8 72.0678 229.244 72.4316C228.713 72.7712 228.084 72.941 227.359 72.941C226.224 72.941 225.317 72.6136 224.641 71.9587C223.988 71.2796 223.662 70.3579 223.662 69.1937V46.0914H226.634V69.3028Z" fill="white"/>
<path d="M240.115 72.9046C238.399 72.9046 236.853 72.4923 235.475 71.6676C234.122 70.843 233.059 69.7152 232.285 68.2842C231.512 66.8289 231.125 65.1917 231.125 63.3726C231.125 61.5536 231.512 59.9164 232.285 58.4611C233.083 56.9816 234.158 55.8295 235.511 55.0049C236.889 54.156 238.436 53.7315 240.151 53.7315C241.867 53.7315 243.402 54.1439 244.755 54.9685C246.133 55.7931 247.208 56.9452 247.981 58.4247C248.755 59.88 249.141 61.5172 249.141 63.3363C249.141 65.1553 248.755 66.7925 247.981 68.2478C247.208 69.703 246.133 70.843 244.755 71.6676C243.378 72.4923 241.831 72.9046 240.115 72.9046ZM240.151 70.2124C241.964 70.2124 243.414 69.5818 244.501 68.3205C245.613 67.0593 246.169 65.3979 246.169 63.3363C246.169 61.2504 245.613 59.5768 244.501 58.3156C243.414 57.0544 241.964 56.4238 240.151 56.4238C238.967 56.4238 237.916 56.7148 236.998 57.2969C236.079 57.879 235.366 58.6915 234.859 59.7345C234.351 60.7774 234.098 61.978 234.098 63.3363C234.098 65.3979 234.654 67.0593 235.765 68.3205C236.877 69.5818 238.339 70.2124 240.151 70.2124Z" fill="white"/>
<path d="M260.287 53.8407C261.979 53.8407 263.417 54.2651 264.601 55.114C265.809 55.9629 266.716 57.1029 267.32 58.5339C267.948 59.9406 268.262 61.4929 268.262 63.1907C268.262 65.0583 267.9 66.7319 267.175 68.2114C266.474 69.6667 265.435 70.8187 264.057 71.6676C262.704 72.4923 261.109 72.9046 259.272 72.9046C258.547 72.9046 257.315 72.7955 255.575 72.5772V82H252.711V59.8073C252.711 57.9154 252.204 56.5329 251.189 55.6597L253.182 53.8043C253.545 54.0226 253.907 54.35 254.27 54.7866C254.632 55.1989 254.934 55.684 255.176 56.2419C255.756 55.5142 256.517 54.9321 257.46 54.4955C258.402 54.059 259.345 53.8407 260.287 53.8407ZM259.091 70.2124C261.121 70.2124 262.656 69.5939 263.695 68.3569C264.758 67.1199 265.29 65.4706 265.29 63.409C265.29 61.4687 264.843 59.8436 263.949 58.5339C263.054 57.1999 261.858 56.5329 260.36 56.5329C259.176 56.5329 258.1 56.921 257.134 57.6971C256.191 58.449 255.672 59.4192 255.575 60.6076V69.9941C257.025 70.1396 258.197 70.2124 259.091 70.2124Z" fill="white"/>
<path d="M279.054 72.9046C277.266 72.9046 275.731 72.5165 274.451 71.7404C273.194 70.94 272.239 69.8728 271.587 68.5388C270.934 67.1806 270.608 65.6647 270.608 63.9911C270.608 62.3418 270.922 60.741 271.551 59.1888C272.179 57.6365 273.121 56.351 274.378 55.3323C275.635 54.3136 277.181 53.8043 279.018 53.8043C280.226 53.8043 281.35 54.0468 282.389 54.5319C283.429 54.9928 284.25 55.6719 284.854 56.5693C285.483 57.4424 285.797 58.4611 285.797 59.6253C285.797 61.4929 285.036 62.9603 283.513 64.0275C281.991 65.0947 280.009 65.604 277.568 65.5555L273.798 65.4828C274.064 66.9865 274.644 68.1508 275.538 68.9754C276.456 69.7758 277.665 70.176 279.163 70.176C281.121 70.176 282.981 69.5211 284.746 68.2114L286.377 70.2851C284.081 72.0315 281.64 72.9046 279.054 72.9046ZM277.568 62.9361C279.187 62.9361 280.468 62.6571 281.411 62.0993C282.353 61.5414 282.824 60.7047 282.824 59.589C282.824 58.5945 282.462 57.8305 281.737 57.2969C281.036 56.7633 280.19 56.4965 279.199 56.4965C278.088 56.4965 277.121 56.8361 276.299 57.5152C275.478 58.1701 274.849 58.9947 274.414 59.9892C273.979 60.9836 273.726 61.9659 273.653 62.9361H277.568Z" fill="white"/>
<path d="M297.499 53.7315C298.2 53.7315 299.033 53.8528 300 54.0953L299.928 56.9695C298.961 56.7027 298.175 56.5693 297.571 56.5693C296.435 56.5693 295.553 56.8361 294.925 57.3697C294.2 57.9518 293.572 58.7279 293.04 59.6981V72.5772H290.068V59.6981C290.068 57.8063 289.56 56.4238 288.545 55.5506L290.539 53.6952C290.901 53.9134 291.264 54.2409 291.626 54.6774C292.013 55.114 292.327 55.6112 292.569 56.1691C293.1 55.49 293.644 54.9685 294.2 54.6047C295.118 54.0226 296.218 53.7315 297.499 53.7315Z" fill="white"/>
</svg>
