<svg width="597" height="163" viewBox="0 0 597 163" fill="none" xmlns="http://www.w3.org/2000/svg">
<path d="M59.981 54.44C55.469 54.44 51.581 53.216 48.317 50.768C45.053 48.272 43.013 45.032 42.197 41.048L47.165 38.888C47.837 41.864 49.349 44.288 51.701 46.16C54.101 48.032 56.909 48.968 60.125 48.968C63.485 48.968 66.221 48.008 68.333 46.088C70.493 44.12 71.573 41.6 71.573 38.528C71.573 36.944 71.261 35.624 70.637 34.568C70.013 33.464 68.933 32.432 67.397 31.472C65.861 30.512 63.677 29.456 60.845 28.304C56.045 26.336 52.589 24.296 50.477 22.184C48.365 20.024 47.309 17.504 47.309 14.624C47.309 12.32 47.909 10.232 49.109 8.36C50.357 6.44 52.037 4.952 54.149 3.896C56.261 2.792 58.613 2.24 61.205 2.24C63.461 2.24 65.501 2.648 67.325 3.464C69.197 4.28 70.661 5.408 71.717 6.848C72.821 8.24 73.373 9.776 73.373 11.456C73.373 13.52 72.701 15.2 71.357 16.496C70.013 17.792 68.309 18.44 66.245 18.44C65.621 18.44 65.141 18.416 64.805 18.368L65.237 13.472C65.525 13.568 65.741 13.616 65.885 13.616C66.365 13.616 66.773 13.424 67.109 13.04C67.493 12.608 67.685 12.104 67.685 11.528C67.685 10.472 67.061 9.584 65.813 8.864C64.565 8.096 63.077 7.712 61.349 7.712C59.141 7.712 57.221 8.36 55.589 9.656C53.957 10.952 53.141 12.512 53.141 14.336C53.141 15.968 53.957 17.504 55.589 18.944C57.221 20.336 59.717 21.728 63.077 23.12C68.213 25.232 71.909 27.488 74.165 29.888C76.421 32.24 77.549 35.096 77.549 38.456C77.549 41.48 76.781 44.216 75.245 46.664C73.709 49.064 71.597 50.96 68.909 52.352C66.269 53.744 63.293 54.44 59.981 54.44ZM114.367 46.592C114.367 47.12 114.535 47.576 114.871 47.96C115.207 48.296 115.639 48.464 116.167 48.464C116.935 48.464 117.535 48.032 117.967 47.168L122.215 49.832C121.543 51.08 120.655 52.064 119.551 52.784C118.495 53.456 117.247 53.792 115.807 53.792C113.551 53.792 111.751 53.144 110.407 51.848C109.111 50.504 108.463 48.68 108.463 46.376V27.944C108.463 23.384 106.135 21.104 101.479 21.104C99.3668 21.104 97.5428 21.632 96.0068 22.688C94.4708 23.696 92.8628 25.304 91.1828 27.512V52.856H85.2788V0.439999H91.1828V20.312C94.3028 17.192 97.9028 15.632 101.983 15.632C105.967 15.632 109.015 16.688 111.127 18.8C113.287 20.912 114.367 23.888 114.367 27.728V46.592ZM132.985 46.592C132.985 47.12 133.153 47.576 133.489 47.96C133.825 48.296 134.257 48.464 134.785 48.464C135.553 48.464 136.153 48.032 136.585 47.168L140.833 49.832C140.161 51.08 139.273 52.064 138.169 52.784C137.113 53.456 135.865 53.792 134.425 53.792C132.169 53.792 130.369 53.144 129.025 51.848C127.729 50.504 127.081 48.68 127.081 46.376V16.928H132.985V46.592ZM129.961 9.944C129.001 9.944 128.137 9.56 127.369 8.792C126.601 8.024 126.217 7.16 126.217 6.2C126.217 5.192 126.601 4.304 127.369 3.536C128.137 2.768 129.001 2.384 129.961 2.384C130.969 2.384 131.857 2.768 132.625 3.536C133.441 4.304 133.849 5.192 133.849 6.2C133.849 7.16 133.441 8.024 132.625 8.792C131.857 9.56 130.969 9.944 129.961 9.944ZM182.64 49.832C181.968 51.08 181.08 52.064 179.976 52.784C178.92 53.456 177.672 53.792 176.232 53.792C173.976 53.792 172.176 53.144 170.832 51.848C169.536 50.504 168.888 48.68 168.888 46.376V28.736C168.888 26.336 168.384 24.512 167.376 23.264C166.368 21.968 164.64 21.32 162.192 21.32C159.984 21.32 158.088 21.848 156.504 22.904C154.968 23.96 153.384 25.568 151.752 27.728V53.072H145.848V27.8C145.848 24.056 144.84 21.32 142.824 19.592L146.784 15.92C147.6 16.352 148.392 17.072 149.16 18.08C149.928 19.04 150.552 20.144 151.032 21.392C154.008 17.792 157.848 15.992 162.552 15.992C166.104 15.992 168.984 16.952 171.192 18.872C173.4 20.744 174.6 23.408 174.792 26.864V46.592C174.792 47.12 174.96 47.576 175.296 47.96C175.632 48.296 176.064 48.464 176.592 48.464C177.36 48.464 177.96 48.032 178.392 47.168L182.64 49.832ZM186.201 71.144C184.521 71.144 183.081 70.712 181.881 69.848C180.633 69.032 179.649 67.928 178.929 66.536L183.465 63.584C184.185 64.976 185.145 65.672 186.345 65.672C187.449 65.672 188.001 64.88 188.001 63.296L188.073 17H193.833V63.296C193.833 65.744 193.089 67.664 191.601 69.056C190.161 70.448 188.361 71.144 186.201 71.144ZM190.809 9.944C189.849 9.944 188.985 9.56 188.217 8.792C187.449 8.024 187.065 7.16 187.065 6.2C187.065 5.192 187.449 4.304 188.217 3.536C188.985 2.768 189.849 2.384 190.809 2.384C191.817 2.384 192.705 2.768 193.473 3.536C194.289 4.304 194.697 5.192 194.697 6.2C194.697 7.16 194.289 8.024 193.473 8.792C192.705 9.56 191.817 9.944 190.809 9.944ZM209.479 46.592C209.479 47.12 209.647 47.576 209.983 47.96C210.319 48.296 210.751 48.464 211.279 48.464C212.047 48.464 212.647 48.032 213.079 47.168L217.327 49.832C216.655 51.08 215.767 52.064 214.663 52.784C213.607 53.456 212.359 53.792 210.919 53.792C208.663 53.792 206.863 53.144 205.519 51.848C204.223 50.504 203.575 48.68 203.575 46.376V16.928H209.479V46.592ZM206.455 9.944C205.495 9.944 204.631 9.56 203.863 8.792C203.095 8.024 202.711 7.16 202.711 6.2C202.711 5.192 203.095 4.304 203.863 3.536C204.631 2.768 205.495 2.384 206.455 2.384C207.463 2.384 208.351 2.768 209.119 3.536C209.935 4.304 210.343 5.192 210.343 6.2C210.343 7.16 209.935 8.024 209.119 8.792C208.351 9.56 207.463 9.944 206.455 9.944ZM245.368 53.864C244.024 53.864 242.752 53.504 241.552 52.784C240.4 52.064 239.488 51.104 238.816 49.904L243.064 47.024C243.544 47.888 244.168 48.32 244.936 48.32C245.464 48.32 245.896 48.152 246.232 47.816C246.568 47.432 246.736 47 246.736 46.52V3.608H250.624L258.616 12.608L280.72 41.336L280.432 40.256L280.216 3.68H286.264V53.072H283.528L251.776 13.4L252.568 15.272L252.712 46.52C252.712 48.584 251.968 50.336 250.48 51.776C248.992 53.168 247.288 53.864 245.368 53.864ZM303.271 46.592C303.271 47.12 303.439 47.576 303.775 47.96C304.111 48.296 304.543 48.464 305.071 48.464C305.839 48.464 306.439 48.032 306.871 47.168L311.119 49.832C310.447 51.08 309.559 52.064 308.455 52.784C307.399 53.456 306.151 53.792 304.711 53.792C302.455 53.792 300.655 53.144 299.311 51.848C298.015 50.504 297.367 48.68 297.367 46.376V16.928H303.271V46.592ZM300.247 9.944C299.287 9.944 298.423 9.56 297.655 8.792C296.887 8.024 296.503 7.16 296.503 6.2C296.503 5.192 296.887 4.304 297.655 3.536C298.423 2.768 299.287 2.384 300.247 2.384C301.255 2.384 302.143 2.768 302.911 3.536C303.727 4.304 304.135 5.192 304.135 6.2C304.135 7.16 303.727 8.024 302.911 8.792C302.143 9.56 301.255 9.944 300.247 9.944ZM326.988 53.72C321.708 53.72 317.052 51.704 313.02 47.672L316.404 43.712C318.228 45.296 319.956 46.472 321.588 47.24C323.22 47.96 324.948 48.32 326.772 48.32C329.124 48.32 330.972 47.816 332.316 46.808C333.708 45.752 334.404 44.312 334.404 42.488C334.404 41.384 334.116 40.496 333.54 39.824C333.012 39.152 332.22 38.576 331.164 38.096C330.156 37.568 328.452 36.824 326.052 35.864C323.412 34.808 321.348 33.896 319.86 33.128C318.42 32.312 317.268 31.304 316.404 30.104C315.54 28.856 315.108 27.32 315.108 25.496C315.108 22.52 316.164 20.12 318.276 18.296C320.388 16.472 323.124 15.56 326.484 15.56C328.452 15.56 330.42 15.896 332.388 16.568C334.404 17.192 335.988 18.008 337.14 19.016L334.62 23.264C332.46 21.68 329.94 20.888 327.06 20.888C325.236 20.888 323.772 21.272 322.668 22.04C321.612 22.76 321.084 23.768 321.084 25.064C321.084 26.408 321.612 27.464 322.668 28.232C323.772 28.952 325.644 29.84 328.284 30.896C331.26 32.096 333.588 33.176 335.268 34.136C336.948 35.096 338.22 36.224 339.084 37.52C339.948 38.768 340.38 40.352 340.38 42.272C340.38 45.68 339.132 48.44 336.636 50.552C334.14 52.664 330.924 53.72 326.988 53.72ZM375.983 46.592C375.983 47.12 376.151 47.576 376.487 47.96C376.823 48.296 377.255 48.464 377.783 48.464C378.551 48.464 379.151 48.032 379.583 47.168L383.831 49.832C383.159 51.08 382.271 52.064 381.167 52.784C380.111 53.456 378.863 53.792 377.423 53.792C375.167 53.792 373.367 53.144 372.023 51.848C370.727 50.504 370.079 48.68 370.079 46.376V27.944C370.079 23.384 367.751 21.104 363.095 21.104C360.983 21.104 359.159 21.632 357.623 22.688C356.087 23.696 354.479 25.304 352.799 27.512V52.856H346.895V0.439999H352.799V20.312C355.919 17.192 359.519 15.632 363.599 15.632C367.583 15.632 370.631 16.688 372.743 18.8C374.903 20.912 375.983 23.888 375.983 27.728V46.592ZM394.601 46.592C394.601 47.12 394.769 47.576 395.105 47.96C395.441 48.296 395.873 48.464 396.401 48.464C397.169 48.464 397.769 48.032 398.201 47.168L402.449 49.832C401.777 51.08 400.889 52.064 399.785 52.784C398.729 53.456 397.481 53.792 396.041 53.792C393.785 53.792 391.985 53.144 390.641 51.848C389.345 50.504 388.697 48.68 388.697 46.376V16.928H394.601V46.592ZM391.577 9.944C390.617 9.944 389.753 9.56 388.985 8.792C388.217 8.024 387.833 7.16 387.833 6.2C387.833 5.192 388.217 4.304 388.985 3.536C389.753 2.768 390.617 2.384 391.577 2.384C392.585 2.384 393.473 2.768 394.241 3.536C395.057 4.304 395.465 5.192 395.465 6.2C395.465 7.16 395.057 8.024 394.241 8.792C393.473 9.56 392.585 9.944 391.577 9.944ZM436.823 46.592C436.823 47.12 436.991 47.576 437.327 47.96C437.663 48.296 438.095 48.464 438.623 48.464C439.391 48.464 439.991 48.032 440.423 47.168L444.671 49.832C443.999 51.08 443.111 52.064 442.007 52.784C440.951 53.456 439.703 53.792 438.263 53.792C436.007 53.792 434.207 53.144 432.863 51.848C431.567 50.504 430.919 48.68 430.919 46.376V27.944C430.919 23.384 428.591 21.104 423.935 21.104C421.823 21.104 419.999 21.632 418.463 22.688C416.927 23.696 415.319 25.304 413.639 27.512V52.856H407.735V0.439999H413.639V20.312C416.759 17.192 420.359 15.632 424.439 15.632C428.423 15.632 431.471 16.688 433.583 18.8C435.743 20.912 436.823 23.888 436.823 27.728V46.592ZM461.307 53.72C458.091 53.72 455.307 52.88 452.955 51.2C450.651 49.472 448.875 47.168 447.627 44.288C446.427 41.408 445.827 38.288 445.827 34.928C445.827 31.28 446.523 28.016 447.915 25.136C449.307 22.256 451.347 19.976 454.035 18.296C456.771 16.616 460.035 15.776 463.827 15.776C464.931 15.776 466.299 15.848 467.931 15.992C469.611 16.088 471.027 16.232 472.179 16.424H477.003V46.304C477.003 46.976 477.147 47.504 477.435 47.888C477.771 48.224 478.251 48.392 478.875 48.392C479.691 48.392 480.339 47.984 480.819 47.168L484.851 49.832C484.227 51.032 483.315 51.992 482.115 52.712C480.963 53.384 479.715 53.72 478.371 53.72C476.595 53.72 475.059 53.216 473.763 52.208C472.515 51.152 471.843 49.928 471.747 48.536V48.608C470.931 50.192 469.563 51.44 467.643 52.352C465.723 53.264 463.611 53.72 461.307 53.72ZM461.739 48.392C463.659 48.392 465.363 47.888 466.851 46.88C468.339 45.872 469.467 44.6 470.235 43.064C470.667 42.248 470.907 41.552 470.955 40.976C471.051 40.4 471.099 39.752 471.099 39.032V21.608L468.075 21.392C465.675 21.2 464.067 21.104 463.251 21.104C459.603 21.104 456.771 22.4 454.755 24.992C452.739 27.584 451.731 30.872 451.731 34.856C451.731 38.552 452.619 41.744 454.395 44.432C456.171 47.072 458.619 48.392 461.739 48.392ZM504.651 15.776C506.043 15.776 507.699 16.016 509.619 16.496L509.475 22.184C507.555 21.656 505.995 21.392 504.795 21.392C502.539 21.392 500.787 21.92 499.539 22.976C498.099 24.128 496.851 25.664 495.795 27.584V53.072H489.891V27.584C489.891 23.84 488.883 21.104 486.867 19.376L490.827 15.704C491.547 16.136 492.267 16.784 492.987 17.648C493.755 18.512 494.379 19.496 494.859 20.6C495.915 19.256 496.995 18.224 498.099 17.504C499.923 16.352 502.107 15.776 504.651 15.776ZM526.787 53.72C523.571 53.72 520.787 52.88 518.435 51.2C516.131 49.472 514.355 47.168 513.107 44.288C511.907 41.408 511.307 38.288 511.307 34.928C511.307 31.28 512.003 28.016 513.395 25.136C514.787 22.256 516.827 19.976 519.515 18.296C522.251 16.616 525.515 15.776 529.307 15.776C530.411 15.776 531.779 15.848 533.411 15.992C535.091 16.088 536.507 16.232 537.659 16.424H542.483V46.304C542.483 46.976 542.627 47.504 542.915 47.888C543.251 48.224 543.731 48.392 544.355 48.392C545.171 48.392 545.819 47.984 546.299 47.168L550.331 49.832C549.707 51.032 548.795 51.992 547.595 52.712C546.443 53.384 545.195 53.72 543.851 53.72C542.075 53.72 540.539 53.216 539.243 52.208C537.995 51.152 537.323 49.928 537.227 48.536V48.608C536.411 50.192 535.043 51.44 533.123 52.352C531.203 53.264 529.091 53.72 526.787 53.72ZM527.219 48.392C529.139 48.392 530.843 47.888 532.331 46.88C533.819 45.872 534.947 44.6 535.715 43.064C536.147 42.248 536.387 41.552 536.435 40.976C536.531 40.4 536.579 39.752 536.579 39.032V21.608L533.555 21.392C531.155 21.2 529.547 21.104 528.731 21.104C525.083 21.104 522.251 22.4 520.235 24.992C518.219 27.584 517.211 30.872 517.211 34.856C517.211 38.552 518.099 41.744 519.875 44.432C521.651 47.072 524.099 48.392 527.219 48.392ZM0.413077 94.608H6.31708V144.072H0.413077V94.608ZM17.2875 107.424C18.6315 106.032 19.3035 104.448 19.3035 102.672C19.3035 101.904 19.1835 101.112 18.9435 100.296C18.7515 99.432 18.6315 98.808 18.5835 98.424L18.4395 97.704C18.2955 96.744 18.5355 95.904 19.1595 95.184C19.7835 94.464 20.5995 94.104 21.6075 94.104C22.3275 94.104 22.9515 94.344 23.4795 94.824C24.0075 95.304 24.3435 95.928 24.4875 96.696L24.5595 97.344C24.7515 98.592 24.8475 99.528 24.8475 100.152C24.8475 100.968 24.7275 102.024 24.4875 103.32C24.2475 104.472 23.7675 105.6 23.0475 106.704C22.3755 107.808 21.5595 108.792 20.5995 109.656L17.2875 107.424ZM90.8715 140.832C90.1995 142.08 89.3115 143.064 88.2075 143.784C87.1515 144.456 85.9035 144.792 84.4635 144.792C82.2075 144.792 80.4075 144.144 79.0635 142.848C77.7675 141.504 77.1195 139.68 77.1195 137.376V118.8C76.9275 116.448 76.3515 114.792 75.3915 113.832C74.4315 112.872 72.9915 112.392 71.0715 112.392C69.1515 112.392 67.4235 112.872 65.8875 113.832C64.3995 114.744 63.0795 116.328 61.9275 118.584V144.072H56.0235V119.736C56.0235 117.384 55.5195 115.584 54.5115 114.336C53.5035 113.04 52.0155 112.392 50.0475 112.392C48.0795 112.392 46.2555 112.968 44.5755 114.12C42.8955 115.224 41.6715 116.64 40.9035 118.368V144.072H34.9995V118.8C34.9995 115.056 33.9915 112.32 31.9755 110.592L35.9355 106.92C36.7035 107.352 37.4715 108.048 38.2395 109.008C39.0075 109.92 39.6315 110.976 40.1115 112.176C41.4555 110.592 43.0155 109.344 44.7915 108.432C46.5675 107.52 48.4395 107.064 50.4075 107.064C52.5195 107.064 54.4635 107.592 56.2395 108.648C58.0155 109.704 59.3835 111.12 60.3435 112.896C61.7355 111.12 63.3675 109.704 65.2395 108.648C67.1115 107.592 69.0795 107.064 71.1435 107.064C74.7435 107.064 77.6235 108.048 79.7835 110.016C81.9435 111.984 83.0235 114.864 83.0235 118.656V137.592C83.0235 138.12 83.1915 138.576 83.5275 138.96C83.8635 139.296 84.2955 139.464 84.8235 139.464C85.5915 139.464 86.1915 139.032 86.6235 138.168L90.8715 140.832ZM119.038 101.088C118.606 99.84 117.934 99.384 117.022 99.72C116.638 99.816 116.374 100.008 116.23 100.296L112.342 96.912C113.158 95.712 114.382 94.848 116.014 94.32C116.83 94.08 117.55 93.96 118.174 93.96C119.662 93.96 120.982 94.44 122.134 95.4C123.286 96.312 124.102 97.632 124.582 99.36L135.67 134.928L135.958 137.736L136.318 134.928L148.846 94.536H154.174L166.486 134.928L166.99 137.952L167.35 134.928L179.878 94.536H185.782L169.654 144.072H164.326L151.438 104.616L138.694 144.072H133.366L119.038 101.088ZM203.294 144.72C199.742 144.72 196.694 143.952 194.15 142.416C191.654 140.832 189.758 138.72 188.462 136.08C187.166 133.392 186.518 130.392 186.518 127.08C186.518 123.816 187.142 120.648 188.39 117.576C189.638 114.504 191.51 111.96 194.006 109.944C196.502 107.928 199.574 106.92 203.222 106.92C205.622 106.92 207.854 107.4 209.918 108.36C211.982 109.272 213.614 110.616 214.814 112.392C216.062 114.12 216.686 116.136 216.686 118.44C216.686 122.136 215.174 125.04 212.15 127.152C209.126 129.264 205.19 130.272 200.342 130.176L192.854 130.032C193.382 133.008 194.534 135.312 196.31 136.944C198.134 138.528 200.534 139.32 203.51 139.32C207.398 139.32 211.094 138.024 214.598 135.432L217.838 139.536C213.278 142.992 208.43 144.72 203.294 144.72ZM200.342 124.992C203.558 124.992 206.102 124.44 207.974 123.336C209.846 122.232 210.782 120.576 210.782 118.368C210.782 116.4 210.062 114.888 208.622 113.832C207.23 112.776 205.55 112.248 203.582 112.248C201.374 112.248 199.454 112.92 197.822 114.264C196.19 115.56 194.942 117.192 194.078 119.16C193.214 121.128 192.71 123.072 192.566 124.992H200.342ZM237.265 144.72C234.865 144.72 232.585 144.576 230.425 144.288C229.465 144.192 228.385 144.024 227.185 143.784C225.985 143.496 225.121 143.256 224.593 143.064V91.656H230.497V110.232C231.841 109.08 233.329 108.216 234.961 107.64C236.641 107.064 238.369 106.776 240.145 106.776C243.217 106.776 245.929 107.592 248.281 109.224C250.681 110.856 252.529 113.112 253.825 115.992C255.121 118.872 255.769 122.112 255.769 125.712C255.769 129.216 255.121 132.408 253.825 135.288C252.529 138.12 250.489 140.4 247.705 142.128C244.969 143.856 241.489 144.72 237.265 144.72ZM237.193 139.32C241.705 139.32 244.945 138.072 246.913 135.576C248.881 133.08 249.865 129.816 249.865 125.784C249.865 122.952 249.409 120.504 248.497 118.44C247.633 116.376 246.433 114.816 244.897 113.76C243.409 112.656 241.753 112.104 239.929 112.104C237.913 112.104 235.897 112.824 233.881 114.264C231.865 115.752 230.737 117.792 230.497 120.384V138.888L233.305 139.176C234.265 139.272 235.561 139.32 237.193 139.32ZM302.703 144.648C301.119 144.648 299.319 144.6 297.303 144.504C295.335 144.456 293.799 144.408 292.695 144.36L288.591 143.928V99.792C287.343 99.792 286.479 100.008 285.999 100.44C285.471 100.872 285.159 101.664 285.063 102.816L279.663 102.744C279.663 99.864 280.551 97.656 282.327 96.12C283.767 94.824 285.879 94.176 288.663 94.176L307.815 94.248C312.375 94.392 316.383 95.544 319.839 97.704C323.295 99.864 325.983 102.816 327.903 106.56C329.823 110.304 330.783 114.576 330.783 119.376C330.783 127.872 328.455 134.208 323.799 138.384C319.191 142.56 312.159 144.648 302.703 144.648ZM303.639 139.248C310.647 139.248 315.927 137.592 319.479 134.28C323.079 130.92 324.879 125.952 324.879 119.376C324.879 115.392 324.135 111.936 322.647 109.008C321.207 106.032 319.143 103.752 316.455 102.168C313.767 100.536 310.623 99.72 307.023 99.72H294.495V138.888C295.455 138.984 296.871 139.08 298.743 139.176C300.615 139.224 302.247 139.248 303.639 139.248ZM353.31 144.72C349.758 144.72 346.71 143.952 344.166 142.416C341.67 140.832 339.774 138.72 338.478 136.08C337.182 133.392 336.534 130.392 336.534 127.08C336.534 123.816 337.158 120.648 338.406 117.576C339.654 114.504 341.526 111.96 344.022 109.944C346.518 107.928 349.59 106.92 353.238 106.92C355.638 106.92 357.87 107.4 359.934 108.36C361.998 109.272 363.63 110.616 364.83 112.392C366.078 114.12 366.702 116.136 366.702 118.44C366.702 122.136 365.19 125.04 362.166 127.152C359.142 129.264 355.206 130.272 350.358 130.176L342.87 130.032C343.398 133.008 344.55 135.312 346.326 136.944C348.15 138.528 350.55 139.32 353.526 139.32C357.414 139.32 361.11 138.024 364.614 135.432L367.854 139.536C363.294 142.992 358.446 144.72 353.31 144.72ZM350.358 124.992C353.574 124.992 356.118 124.44 357.99 123.336C359.862 122.232 360.798 120.576 360.798 118.368C360.798 116.4 360.078 114.888 358.638 113.832C357.246 112.776 355.566 112.248 353.598 112.248C351.39 112.248 349.47 112.92 347.838 114.264C346.206 115.56 344.958 117.192 344.094 119.16C343.23 121.128 342.726 123.072 342.582 124.992H350.358ZM374.033 114.552C373.649 113.688 373.073 112.896 372.305 112.176C371.537 111.408 370.769 110.928 370.001 110.736L373.169 105.912C376.145 107.592 378.377 110.424 379.865 114.408L387.785 135.36L397.937 107.424H403.841L390.449 144.072H385.193L374.033 114.552ZM423.643 144.72C420.091 144.72 417.043 143.952 414.499 142.416C412.003 140.832 410.107 138.72 408.811 136.08C407.515 133.392 406.867 130.392 406.867 127.08C406.867 123.816 407.491 120.648 408.739 117.576C409.987 114.504 411.859 111.96 414.355 109.944C416.851 107.928 419.923 106.92 423.571 106.92C425.971 106.92 428.203 107.4 430.267 108.36C432.331 109.272 433.963 110.616 435.163 112.392C436.411 114.12 437.035 116.136 437.035 118.44C437.035 122.136 435.523 125.04 432.499 127.152C429.475 129.264 425.539 130.272 420.691 130.176L413.203 130.032C413.731 133.008 414.883 135.312 416.659 136.944C418.483 138.528 420.883 139.32 423.859 139.32C427.747 139.32 431.443 138.024 434.947 135.432L438.187 139.536C433.627 142.992 428.779 144.72 423.643 144.72ZM420.691 124.992C423.907 124.992 426.451 124.44 428.323 123.336C430.195 122.232 431.131 120.576 431.131 118.368C431.131 116.4 430.411 114.888 428.971 113.832C427.579 112.776 425.899 112.248 423.931 112.248C421.723 112.248 419.803 112.92 418.171 114.264C416.539 115.56 415.291 117.192 414.427 119.16C413.563 121.128 413.059 123.072 412.915 124.992H420.691ZM450.557 137.592C450.557 138.12 450.725 138.576 451.061 138.96C451.397 139.296 451.829 139.464 452.357 139.464C453.125 139.464 453.725 139.032 454.157 138.168L458.405 140.832C457.733 142.08 456.845 143.064 455.741 143.784C454.685 144.456 453.437 144.792 451.997 144.792C449.741 144.792 447.941 144.144 446.597 142.848C445.301 141.504 444.653 139.68 444.653 137.376V91.656H450.557V137.592ZM477.333 144.72C473.925 144.72 470.853 143.904 468.117 142.272C465.429 140.64 463.317 138.408 461.781 135.576C460.245 132.696 459.477 129.456 459.477 125.856C459.477 122.256 460.245 119.016 461.781 116.136C463.365 113.208 465.501 110.928 468.189 109.296C470.925 107.616 473.997 106.776 477.405 106.776C480.813 106.776 483.861 107.592 486.549 109.224C489.285 110.856 491.421 113.136 492.957 116.064C494.493 118.944 495.261 122.184 495.261 125.784C495.261 129.384 494.493 132.624 492.957 135.504C491.421 138.384 489.285 140.64 486.549 142.272C483.813 143.904 480.741 144.72 477.333 144.72ZM477.405 139.392C481.005 139.392 483.885 138.144 486.045 135.648C488.253 133.152 489.357 129.864 489.357 125.784C489.357 121.656 488.253 118.344 486.045 115.848C483.885 113.352 481.005 112.104 477.405 112.104C475.053 112.104 472.965 112.68 471.141 113.832C469.317 114.984 467.901 116.592 466.893 118.656C465.885 120.72 465.381 123.096 465.381 125.784C465.381 129.864 466.485 133.152 468.693 135.648C470.901 138.144 473.805 139.392 477.405 139.392ZM517.399 106.992C520.759 106.992 523.615 107.832 525.967 109.512C528.367 111.192 530.167 113.448 531.367 116.28C532.615 119.064 533.239 122.136 533.239 125.496C533.239 129.192 532.519 132.504 531.079 135.432C529.687 138.312 527.623 140.592 524.887 142.272C522.199 143.904 519.031 144.72 515.383 144.72C513.943 144.72 511.495 144.504 508.039 144.072V162.72H502.351V118.8C502.351 115.056 501.343 112.32 499.327 110.592L503.287 106.92C504.007 107.352 504.727 108 505.447 108.864C506.167 109.68 506.767 110.64 507.247 111.744C508.399 110.304 509.911 109.152 511.783 108.288C513.655 107.424 515.527 106.992 517.399 106.992ZM515.023 139.392C519.055 139.392 522.103 138.168 524.167 135.72C526.279 133.272 527.335 130.008 527.335 125.928C527.335 122.088 526.447 118.872 524.671 116.28C522.895 113.64 520.519 112.32 517.543 112.32C515.191 112.32 513.055 113.088 511.135 114.624C509.263 116.112 508.231 118.032 508.039 120.384V138.96C510.919 139.248 513.247 139.392 515.023 139.392ZM554.674 144.72C551.122 144.72 548.074 143.952 545.53 142.416C543.034 140.832 541.138 138.72 539.842 136.08C538.546 133.392 537.898 130.392 537.898 127.08C537.898 123.816 538.522 120.648 539.77 117.576C541.018 114.504 542.89 111.96 545.386 109.944C547.882 107.928 550.954 106.92 554.602 106.92C557.002 106.92 559.234 107.4 561.298 108.36C563.362 109.272 564.994 110.616 566.194 112.392C567.442 114.12 568.066 116.136 568.066 118.44C568.066 122.136 566.554 125.04 563.53 127.152C560.506 129.264 556.57 130.272 551.722 130.176L544.234 130.032C544.762 133.008 545.914 135.312 547.69 136.944C549.514 138.528 551.914 139.32 554.89 139.32C558.778 139.32 562.474 138.024 565.978 135.432L569.218 139.536C564.658 142.992 559.81 144.72 554.674 144.72ZM551.722 124.992C554.938 124.992 557.482 124.44 559.354 123.336C561.226 122.232 562.162 120.576 562.162 118.368C562.162 116.4 561.442 114.888 560.002 113.832C558.61 112.776 556.93 112.248 554.962 112.248C552.754 112.248 550.834 112.92 549.202 114.264C547.57 115.56 546.322 117.192 545.458 119.16C544.594 121.128 544.09 123.072 543.946 124.992H551.722ZM591.309 106.776C592.701 106.776 594.357 107.016 596.277 107.496L596.133 113.184C594.213 112.656 592.653 112.392 591.453 112.392C589.197 112.392 587.445 112.92 586.197 113.976C584.757 115.128 583.509 116.664 582.453 118.584V144.072H576.549V118.584C576.549 114.84 575.541 112.104 573.525 110.376L577.485 106.704C578.205 107.136 578.925 107.784 579.645 108.648C580.413 109.512 581.037 110.496 581.517 111.6C582.573 110.256 583.653 109.224 584.757 108.504C586.581 107.352 588.765 106.776 591.309 106.776Z" fill="white"/>
</svg>
