<svg width="299" height="82" viewBox="0 0 299 82" fill="none" xmlns="http://www.w3.org/2000/svg">
<path d="M30.7405 27.72C28.4845 27.72 26.5405 27.108 24.9085 25.884C23.2765 24.636 22.2565 23.016 21.8485 21.024L24.3325 19.944C24.6685 21.432 25.4245 22.644 26.6005 23.58C27.8005 24.516 29.2045 24.984 30.8125 24.984C32.4925 24.984 33.8605 24.504 34.9165 23.544C35.9965 22.56 36.5365 21.3 36.5365 19.764C36.5365 18.972 36.3805 18.312 36.0685 17.784C35.7565 17.232 35.2165 16.716 34.4485 16.236C33.6805 15.756 32.5885 15.228 31.1725 14.652C28.7725 13.668 27.0445 12.648 25.9885 11.592C24.9325 10.512 24.4045 9.252 24.4045 7.812C24.4045 6.66 24.7045 5.616 25.3045 4.68C25.9285 3.72 26.7685 2.976 27.8245 2.448C28.8805 1.896 30.0565 1.62 31.3525 1.62C32.4805 1.62 33.5005 1.824 34.4125 2.232C35.3485 2.64 36.0805 3.204 36.6085 3.924C37.1605 4.62 37.4365 5.388 37.4365 6.228C37.4365 7.26 37.1005 8.1 36.4285 8.748C35.7565 9.396 34.9045 9.72 33.8725 9.72C33.5605 9.72 33.3205 9.708 33.1525 9.684L33.3685 7.236C33.5125 7.284 33.6205 7.308 33.6925 7.308C33.9325 7.308 34.1365 7.212 34.3045 7.02C34.4965 6.804 34.5925 6.552 34.5925 6.264C34.5925 5.736 34.2805 5.292 33.6565 4.932C33.0325 4.548 32.2885 4.356 31.4245 4.356C30.3205 4.356 29.3605 4.68 28.5445 5.328C27.7285 5.976 27.3205 6.756 27.3205 7.668C27.3205 8.484 27.7285 9.252 28.5445 9.972C29.3605 10.668 30.6085 11.364 32.2885 12.06C34.8565 13.116 36.7045 14.244 37.8325 15.444C38.9605 16.62 39.5245 18.048 39.5245 19.728C39.5245 21.24 39.1405 22.608 38.3725 23.832C37.6045 25.032 36.5485 25.98 35.2045 26.676C33.8845 27.372 32.3965 27.72 30.7405 27.72ZM57.9334 23.796C57.9334 24.06 58.0174 24.288 58.1854 24.48C58.3534 24.648 58.5694 24.732 58.8334 24.732C59.2174 24.732 59.5174 24.516 59.7334 24.084L61.8574 25.416C61.5214 26.04 61.0774 26.532 60.5254 26.892C59.9974 27.228 59.3734 27.396 58.6534 27.396C57.5254 27.396 56.6254 27.072 55.9534 26.424C55.3054 25.752 54.9814 24.84 54.9814 23.688V14.472C54.9814 12.192 53.8174 11.052 51.4894 11.052C50.4334 11.052 49.5214 11.316 48.7534 11.844C47.9854 12.348 47.1814 13.152 46.3414 14.256V26.928H43.3894V0.719999H46.3414V10.656C47.9014 9.096 49.7014 8.316 51.7414 8.316C53.7334 8.316 55.2574 8.844 56.3134 9.9C57.3934 10.956 57.9334 12.444 57.9334 14.364V23.796ZM67.2425 23.796C67.2425 24.06 67.3265 24.288 67.4945 24.48C67.6625 24.648 67.8785 24.732 68.1425 24.732C68.5265 24.732 68.8265 24.516 69.0425 24.084L71.1665 25.416C70.8305 26.04 70.3865 26.532 69.8345 26.892C69.3065 27.228 68.6825 27.396 67.9625 27.396C66.8345 27.396 65.9345 27.072 65.2625 26.424C64.6145 25.752 64.2905 24.84 64.2905 23.688V8.964H67.2425V23.796ZM65.7305 5.472C65.2505 5.472 64.8185 5.28 64.4345 4.896C64.0505 4.512 63.8585 4.08 63.8585 3.6C63.8585 3.096 64.0505 2.652 64.4345 2.268C64.8185 1.884 65.2505 1.692 65.7305 1.692C66.2345 1.692 66.6785 1.884 67.0625 2.268C67.4705 2.652 67.6745 3.096 67.6745 3.6C67.6745 4.08 67.4705 4.512 67.0625 4.896C66.6785 5.28 66.2345 5.472 65.7305 5.472ZM92.0699 25.416C91.7339 26.04 91.2899 26.532 90.7379 26.892C90.2099 27.228 89.5859 27.396 88.8659 27.396C87.7379 27.396 86.8379 27.072 86.1659 26.424C85.5179 25.752 85.1939 24.84 85.1939 23.688V14.868C85.1939 13.668 84.9419 12.756 84.4379 12.132C83.9339 11.484 83.0699 11.16 81.8459 11.16C80.7419 11.16 79.7939 11.424 79.0019 11.952C78.2339 12.48 77.4419 13.284 76.6259 14.364V27.036H73.6739V14.4C73.6739 12.528 73.1699 11.16 72.1619 10.296L74.1419 8.46C74.5499 8.676 74.9459 9.036 75.3299 9.54C75.7139 10.02 76.0259 10.572 76.2659 11.196C77.7539 9.396 79.6739 8.496 82.0259 8.496C83.8019 8.496 85.2419 8.976 86.3459 9.936C87.4499 10.872 88.0499 12.204 88.1459 13.932V23.796C88.1459 24.06 88.2299 24.288 88.3979 24.48C88.5659 24.648 88.7819 24.732 89.0459 24.732C89.4299 24.732 89.7299 24.516 89.9459 24.084L92.0699 25.416ZM93.8507 36.072C93.0107 36.072 92.2907 35.856 91.6907 35.424C91.0667 35.016 90.5747 34.464 90.2147 33.768L92.4827 32.292C92.8427 32.988 93.3227 33.336 93.9227 33.336C94.4747 33.336 94.7507 32.94 94.7507 32.148L94.7867 9H97.6667V32.148C97.6667 33.372 97.2947 34.332 96.5507 35.028C95.8307 35.724 94.9307 36.072 93.8507 36.072ZM96.1547 5.472C95.6747 5.472 95.2427 5.28 94.8587 4.896C94.4747 4.512 94.2827 4.08 94.2827 3.6C94.2827 3.096 94.4747 2.652 94.8587 2.268C95.2427 1.884 95.6747 1.692 96.1547 1.692C96.6587 1.692 97.1027 1.884 97.4867 2.268C97.8947 2.652 98.0987 3.096 98.0987 3.6C98.0987 4.08 97.8947 4.512 97.4867 4.896C97.1027 5.28 96.6587 5.472 96.1547 5.472ZM105.49 23.796C105.49 24.06 105.574 24.288 105.742 24.48C105.91 24.648 106.126 24.732 106.39 24.732C106.774 24.732 107.074 24.516 107.29 24.084L109.414 25.416C109.078 26.04 108.634 26.532 108.082 26.892C107.554 27.228 106.93 27.396 106.21 27.396C105.082 27.396 104.182 27.072 103.51 26.424C102.862 25.752 102.538 24.84 102.538 23.688V8.964H105.49V23.796ZM103.978 5.472C103.498 5.472 103.066 5.28 102.682 4.896C102.298 4.512 102.106 4.08 102.106 3.6C102.106 3.096 102.298 2.652 102.682 2.268C103.066 1.884 103.498 1.692 103.978 1.692C104.482 1.692 104.926 1.884 105.31 2.268C105.718 2.652 105.922 3.096 105.922 3.6C105.922 4.08 105.718 4.512 105.31 4.896C104.926 5.28 104.482 5.472 103.978 5.472ZM123.434 27.432C122.762 27.432 122.126 27.252 121.526 26.892C120.95 26.532 120.494 26.052 120.158 25.452L122.282 24.012C122.522 24.444 122.834 24.66 123.218 24.66C123.482 24.66 123.698 24.576 123.866 24.408C124.034 24.216 124.118 24 124.118 23.76V2.304H126.062L130.058 6.804L141.11 21.168L140.966 20.628L140.858 2.34H143.882V27.036H142.514L126.638 7.2L127.034 8.136L127.106 23.76C127.106 24.792 126.734 25.668 125.99 26.388C125.246 27.084 124.394 27.432 123.434 27.432ZM152.385 23.796C152.385 24.06 152.469 24.288 152.637 24.48C152.805 24.648 153.021 24.732 153.285 24.732C153.669 24.732 153.969 24.516 154.185 24.084L156.309 25.416C155.973 26.04 155.529 26.532 154.977 26.892C154.449 27.228 153.825 27.396 153.105 27.396C151.977 27.396 151.077 27.072 150.405 26.424C149.757 25.752 149.433 24.84 149.433 23.688V8.964H152.385V23.796ZM150.873 5.472C150.393 5.472 149.961 5.28 149.577 4.896C149.193 4.512 149.001 4.08 149.001 3.6C149.001 3.096 149.193 2.652 149.577 2.268C149.961 1.884 150.393 1.692 150.873 1.692C151.377 1.692 151.821 1.884 152.205 2.268C152.613 2.652 152.817 3.096 152.817 3.6C152.817 4.08 152.613 4.512 152.205 4.896C151.821 5.28 151.377 5.472 150.873 5.472ZM164.244 27.36C161.604 27.36 159.276 26.352 157.26 24.336L158.952 22.356C159.864 23.148 160.728 23.736 161.544 24.12C162.36 24.48 163.224 24.66 164.136 24.66C165.312 24.66 166.236 24.408 166.908 23.904C167.604 23.376 167.952 22.656 167.952 21.744C167.952 21.192 167.808 20.748 167.52 20.412C167.256 20.076 166.86 19.788 166.332 19.548C165.828 19.284 164.976 18.912 163.776 18.432C162.456 17.904 161.424 17.448 160.68 17.064C159.96 16.656 159.384 16.152 158.952 15.552C158.52 14.928 158.304 14.16 158.304 13.248C158.304 11.76 158.832 10.56 159.888 9.648C160.944 8.736 162.312 8.28 163.992 8.28C164.976 8.28 165.96 8.448 166.944 8.784C167.952 9.096 168.744 9.504 169.32 10.008L168.06 12.132C166.98 11.34 165.72 10.944 164.28 10.944C163.368 10.944 162.636 11.136 162.084 11.52C161.556 11.88 161.292 12.384 161.292 13.032C161.292 13.704 161.556 14.232 162.084 14.616C162.636 14.976 163.572 15.42 164.892 15.948C166.38 16.548 167.544 17.088 168.384 17.568C169.224 18.048 169.86 18.612 170.292 19.26C170.724 19.884 170.94 20.676 170.94 21.636C170.94 23.34 170.316 24.72 169.068 25.776C167.82 26.832 166.212 27.36 164.244 27.36ZM188.741 23.796C188.741 24.06 188.825 24.288 188.993 24.48C189.161 24.648 189.377 24.732 189.641 24.732C190.025 24.732 190.325 24.516 190.541 24.084L192.665 25.416C192.329 26.04 191.885 26.532 191.333 26.892C190.805 27.228 190.181 27.396 189.461 27.396C188.333 27.396 187.433 27.072 186.761 26.424C186.113 25.752 185.789 24.84 185.789 23.688V14.472C185.789 12.192 184.625 11.052 182.297 11.052C181.241 11.052 180.329 11.316 179.561 11.844C178.793 12.348 177.989 13.152 177.149 14.256V26.928H174.197V0.719999H177.149V10.656C178.709 9.096 180.509 8.316 182.549 8.316C184.541 8.316 186.065 8.844 187.121 9.9C188.201 10.956 188.741 12.444 188.741 14.364V23.796ZM198.05 23.796C198.05 24.06 198.134 24.288 198.302 24.48C198.47 24.648 198.686 24.732 198.95 24.732C199.334 24.732 199.634 24.516 199.85 24.084L201.974 25.416C201.638 26.04 201.194 26.532 200.642 26.892C200.114 27.228 199.49 27.396 198.77 27.396C197.642 27.396 196.742 27.072 196.07 26.424C195.422 25.752 195.098 24.84 195.098 23.688V8.964H198.05V23.796ZM196.538 5.472C196.058 5.472 195.626 5.28 195.242 4.896C194.858 4.512 194.666 4.08 194.666 3.6C194.666 3.096 194.858 2.652 195.242 2.268C195.626 1.884 196.058 1.692 196.538 1.692C197.042 1.692 197.486 1.884 197.87 2.268C198.278 2.652 198.482 3.096 198.482 3.6C198.482 4.08 198.278 4.512 197.87 4.896C197.486 5.28 197.042 5.472 196.538 5.472ZM219.161 23.796C219.161 24.06 219.245 24.288 219.413 24.48C219.581 24.648 219.797 24.732 220.061 24.732C220.445 24.732 220.745 24.516 220.961 24.084L223.085 25.416C222.749 26.04 222.305 26.532 221.753 26.892C221.225 27.228 220.601 27.396 219.881 27.396C218.753 27.396 217.853 27.072 217.181 26.424C216.533 25.752 216.209 24.84 216.209 23.688V14.472C216.209 12.192 215.045 11.052 212.717 11.052C211.661 11.052 210.749 11.316 209.981 11.844C209.213 12.348 208.409 13.152 207.569 14.256V26.928H204.617V0.719999H207.569V10.656C209.129 9.096 210.929 8.316 212.969 8.316C214.961 8.316 216.485 8.844 217.541 9.9C218.621 10.956 219.161 12.444 219.161 14.364V23.796ZM231.403 27.36C229.795 27.36 228.403 26.94 227.227 26.1C226.075 25.236 225.187 24.084 224.563 22.644C223.963 21.204 223.663 19.644 223.663 17.964C223.663 16.14 224.011 14.508 224.707 13.068C225.403 11.628 226.423 10.488 227.767 9.648C229.135 8.808 230.767 8.388 232.663 8.388C233.215 8.388 233.899 8.424 234.715 8.496C235.555 8.544 236.263 8.616 236.839 8.712H239.251V23.652C239.251 23.988 239.323 24.252 239.467 24.444C239.635 24.612 239.875 24.696 240.187 24.696C240.595 24.696 240.919 24.492 241.159 24.084L243.175 25.416C242.863 26.016 242.407 26.496 241.807 26.856C241.231 27.192 240.607 27.36 239.935 27.36C239.047 27.36 238.279 27.108 237.631 26.604C237.007 26.076 236.671 25.464 236.623 24.768V24.804C236.215 25.596 235.531 26.22 234.571 26.676C233.611 27.132 232.555 27.36 231.403 27.36ZM231.619 24.696C232.579 24.696 233.431 24.444 234.175 23.94C234.919 23.436 235.483 22.8 235.867 22.032C236.083 21.624 236.203 21.276 236.227 20.988C236.275 20.7 236.299 20.376 236.299 20.016V11.304L234.787 11.196C233.587 11.1 232.783 11.052 232.375 11.052C230.551 11.052 229.135 11.7 228.127 12.996C227.119 14.292 226.615 15.936 226.615 17.928C226.615 19.776 227.059 21.372 227.947 22.716C228.835 24.036 230.059 24.696 231.619 24.696ZM253.076 8.388C253.772 8.388 254.6 8.508 255.56 8.748L255.488 11.592C254.528 11.328 253.748 11.196 253.148 11.196C252.02 11.196 251.144 11.46 250.52 11.988C249.8 12.564 249.176 13.332 248.648 14.292V27.036H245.696V14.292C245.696 12.42 245.192 11.052 244.184 10.188L246.164 8.352C246.524 8.568 246.884 8.892 247.244 9.324C247.628 9.756 247.94 10.248 248.18 10.8C248.708 10.128 249.248 9.612 249.8 9.252C250.712 8.676 251.804 8.388 253.076 8.388ZM264.144 27.36C262.536 27.36 261.144 26.94 259.968 26.1C258.816 25.236 257.928 24.084 257.304 22.644C256.704 21.204 256.404 19.644 256.404 17.964C256.404 16.14 256.752 14.508 257.448 13.068C258.144 11.628 259.164 10.488 260.508 9.648C261.876 8.808 263.508 8.388 265.404 8.388C265.956 8.388 266.64 8.424 267.456 8.496C268.296 8.544 269.004 8.616 269.58 8.712H271.992V23.652C271.992 23.988 272.064 24.252 272.208 24.444C272.376 24.612 272.616 24.696 272.928 24.696C273.336 24.696 273.66 24.492 273.9 24.084L275.916 25.416C275.604 26.016 275.148 26.496 274.548 26.856C273.972 27.192 273.348 27.36 272.676 27.36C271.788 27.36 271.02 27.108 270.372 26.604C269.748 26.076 269.412 25.464 269.364 24.768V24.804C268.956 25.596 268.272 26.22 267.312 26.676C266.352 27.132 265.296 27.36 264.144 27.36ZM264.36 24.696C265.32 24.696 266.172 24.444 266.916 23.94C267.66 23.436 268.224 22.8 268.608 22.032C268.824 21.624 268.944 21.276 268.968 20.988C269.016 20.7 269.04 20.376 269.04 20.016V11.304L267.528 11.196C266.328 11.1 265.524 11.052 265.116 11.052C263.292 11.052 261.876 11.7 260.868 12.996C259.86 14.292 259.356 15.936 259.356 17.928C259.356 19.776 259.8 21.372 260.688 22.716C261.576 24.036 262.8 24.696 264.36 24.696ZM0.956539 47.304H3.90854V72.036H0.956539V47.304ZM9.39376 53.712C10.0658 53.016 10.4018 52.224 10.4018 51.336C10.4018 50.952 10.3418 50.556 10.2218 50.148C10.1258 49.716 10.0658 49.404 10.0418 49.212L9.96976 48.852C9.89776 48.372 10.0178 47.952 10.3298 47.592C10.6418 47.232 11.0498 47.052 11.5538 47.052C11.9138 47.052 12.2258 47.172 12.4898 47.412C12.7538 47.652 12.9218 47.964 12.9938 48.348L13.0298 48.672C13.1258 49.296 13.1738 49.764 13.1738 50.076C13.1738 50.484 13.1138 51.012 12.9938 51.66C12.8738 52.236 12.6338 52.8 12.2738 53.352C11.9378 53.904 11.5298 54.396 11.0498 54.828L9.39376 53.712ZM46.1858 70.416C45.8498 71.04 45.4058 71.532 44.8538 71.892C44.3258 72.228 43.7018 72.396 42.9818 72.396C41.8538 72.396 40.9538 72.072 40.2818 71.424C39.6338 70.752 39.3098 69.84 39.3098 68.688V59.4C39.2138 58.224 38.9258 57.396 38.4458 56.916C37.9658 56.436 37.2458 56.196 36.2858 56.196C35.3258 56.196 34.4618 56.436 33.6938 56.916C32.9498 57.372 32.2898 58.164 31.7138 59.292V72.036H28.7618V59.868C28.7618 58.692 28.5098 57.792 28.0058 57.168C27.5018 56.52 26.7578 56.196 25.7738 56.196C24.7898 56.196 23.8778 56.484 23.0378 57.06C22.1978 57.612 21.5858 58.32 21.2018 59.184V72.036H18.2498V59.4C18.2498 57.528 17.7458 56.16 16.7378 55.296L18.7178 53.46C19.1018 53.676 19.4858 54.024 19.8698 54.504C20.2538 54.96 20.5658 55.488 20.8058 56.088C21.4778 55.296 22.2578 54.672 23.1458 54.216C24.0338 53.76 24.9698 53.532 25.9538 53.532C27.0098 53.532 27.9818 53.796 28.8698 54.324C29.7578 54.852 30.4418 55.56 30.9218 56.448C31.6178 55.56 32.4338 54.852 33.3698 54.324C34.3058 53.796 35.2898 53.532 36.3218 53.532C38.1218 53.532 39.5618 54.024 40.6418 55.008C41.7218 55.992 42.2618 57.432 42.2618 59.328V68.796C42.2618 69.06 42.3458 69.288 42.5138 69.48C42.6818 69.648 42.8978 69.732 43.1618 69.732C43.5458 69.732 43.8458 69.516 44.0618 69.084L46.1858 70.416ZM60.2691 50.544C60.0531 49.92 59.7171 49.692 59.2611 49.86C59.0691 49.908 58.9371 50.004 58.8651 50.148L56.9211 48.456C57.3291 47.856 57.9411 47.424 58.7571 47.16C59.1651 47.04 59.5251 46.98 59.8371 46.98C60.5811 46.98 61.2411 47.22 61.8171 47.7C62.3931 48.156 62.8011 48.816 63.0411 49.68L68.5851 67.464L68.7291 68.868L68.9091 67.464L75.1731 47.268H77.8371L83.9931 67.464L84.2451 68.976L84.4251 67.464L90.6891 47.268H93.6411L85.5771 72.036H82.9131L76.4691 52.308L70.0971 72.036H67.4331L60.2691 50.544ZM102.397 72.36C100.621 72.36 99.0972 71.976 97.8252 71.208C96.5772 70.416 95.6292 69.36 94.9812 68.04C94.3332 66.696 94.0092 65.196 94.0092 63.54C94.0092 61.908 94.3212 60.324 94.9452 58.788C95.5692 57.252 96.5052 55.98 97.7532 54.972C99.0012 53.964 100.537 53.46 102.361 53.46C103.561 53.46 104.677 53.7 105.709 54.18C106.741 54.636 107.557 55.308 108.157 56.196C108.781 57.06 109.093 58.068 109.093 59.22C109.093 61.068 108.337 62.52 106.825 63.576C105.313 64.632 103.345 65.136 100.921 65.088L97.1772 65.016C97.4412 66.504 98.0172 67.656 98.9052 68.472C99.8172 69.264 101.017 69.66 102.505 69.66C104.449 69.66 106.297 69.012 108.049 67.716L109.669 69.768C107.389 71.496 104.965 72.36 102.397 72.36ZM100.921 62.496C102.529 62.496 103.801 62.22 104.737 61.668C105.673 61.116 106.141 60.288 106.141 59.184C106.141 58.2 105.781 57.444 105.061 56.916C104.365 56.388 103.525 56.124 102.541 56.124C101.437 56.124 100.477 56.46 99.6612 57.132C98.8452 57.78 98.2212 58.596 97.7892 59.58C97.3572 60.564 97.1052 61.536 97.0332 62.496H100.921ZM119.382 72.36C118.182 72.36 117.042 72.288 115.962 72.144C115.482 72.096 114.942 72.012 114.342 71.892C113.742 71.748 113.31 71.628 113.046 71.532V45.828H115.998V55.116C116.67 54.54 117.414 54.108 118.23 53.82C119.07 53.532 119.934 53.388 120.822 53.388C122.358 53.388 123.714 53.796 124.89 54.612C126.09 55.428 127.014 56.556 127.662 57.996C128.31 59.436 128.634 61.056 128.634 62.856C128.634 64.608 128.31 66.204 127.662 67.644C127.014 69.06 125.994 70.2 124.602 71.064C123.234 71.928 121.494 72.36 119.382 72.36ZM119.346 69.66C121.602 69.66 123.222 69.036 124.206 67.788C125.19 66.54 125.682 64.908 125.682 62.892C125.682 61.476 125.454 60.252 124.998 59.22C124.566 58.188 123.966 57.408 123.198 56.88C122.454 56.328 121.626 56.052 120.714 56.052C119.706 56.052 118.698 56.412 117.69 57.132C116.682 57.876 116.118 58.896 115.998 60.192V69.444L117.402 69.588C117.882 69.636 118.53 69.66 119.346 69.66ZM152.102 72.324C151.31 72.324 150.41 72.3 149.402 72.252C148.418 72.228 147.65 72.204 147.098 72.18L145.046 71.964V49.896C144.422 49.896 143.99 50.004 143.75 50.22C143.486 50.436 143.33 50.832 143.282 51.408L140.582 51.372C140.582 49.932 141.026 48.828 141.914 48.06C142.634 47.412 143.69 47.088 145.082 47.088L154.658 47.124C156.938 47.196 158.942 47.772 160.67 48.852C162.398 49.932 163.742 51.408 164.702 53.28C165.662 55.152 166.142 57.288 166.142 59.688C166.142 63.936 164.978 67.104 162.65 69.192C160.346 71.28 156.83 72.324 152.102 72.324ZM152.57 69.624C156.074 69.624 158.714 68.796 160.49 67.14C162.29 65.46 163.19 62.976 163.19 59.688C163.19 57.696 162.818 55.968 162.074 54.504C161.354 53.016 160.322 51.876 158.978 51.084C157.634 50.268 156.062 49.86 154.262 49.86H147.998V69.444C148.478 69.492 149.186 69.54 150.122 69.588C151.058 69.612 151.874 69.624 152.57 69.624ZM177.405 72.36C175.629 72.36 174.105 71.976 172.833 71.208C171.585 70.416 170.637 69.36 169.989 68.04C169.341 66.696 169.017 65.196 169.017 63.54C169.017 61.908 169.329 60.324 169.953 58.788C170.577 57.252 171.513 55.98 172.761 54.972C174.009 53.964 175.545 53.46 177.369 53.46C178.569 53.46 179.685 53.7 180.717 54.18C181.749 54.636 182.565 55.308 183.165 56.196C183.789 57.06 184.101 58.068 184.101 59.22C184.101 61.068 183.345 62.52 181.833 63.576C180.321 64.632 178.353 65.136 175.929 65.088L172.185 65.016C172.449 66.504 173.025 67.656 173.913 68.472C174.825 69.264 176.025 69.66 177.513 69.66C179.457 69.66 181.305 69.012 183.057 67.716L184.677 69.768C182.397 71.496 179.973 72.36 177.405 72.36ZM175.929 62.496C177.537 62.496 178.809 62.22 179.745 61.668C180.681 61.116 181.149 60.288 181.149 59.184C181.149 58.2 180.789 57.444 180.069 56.916C179.373 56.388 178.533 56.124 177.549 56.124C176.445 56.124 175.485 56.46 174.669 57.132C173.853 57.78 173.229 58.596 172.797 59.58C172.365 60.564 172.113 61.536 172.041 62.496H175.929ZM187.766 57.276C187.574 56.844 187.286 56.448 186.902 56.088C186.518 55.704 186.134 55.464 185.75 55.368L187.334 52.956C188.822 53.796 189.938 55.212 190.682 57.204L194.642 67.68L199.718 53.712H202.67L195.974 72.036H193.346L187.766 57.276ZM212.571 72.36C210.795 72.36 209.271 71.976 207.999 71.208C206.751 70.416 205.803 69.36 205.155 68.04C204.507 66.696 204.183 65.196 204.183 63.54C204.183 61.908 204.495 60.324 205.119 58.788C205.743 57.252 206.679 55.98 207.927 54.972C209.175 53.964 210.711 53.46 212.535 53.46C213.735 53.46 214.851 53.7 215.883 54.18C216.915 54.636 217.731 55.308 218.331 56.196C218.955 57.06 219.267 58.068 219.267 59.22C219.267 61.068 218.511 62.52 216.999 63.576C215.487 64.632 213.519 65.136 211.095 65.088L207.351 65.016C207.615 66.504 208.191 67.656 209.079 68.472C209.991 69.264 211.191 69.66 212.679 69.66C214.623 69.66 216.471 69.012 218.223 67.716L219.843 69.768C217.563 71.496 215.139 72.36 212.571 72.36ZM211.095 62.496C212.703 62.496 213.975 62.22 214.911 61.668C215.847 61.116 216.315 60.288 216.315 59.184C216.315 58.2 215.955 57.444 215.235 56.916C214.539 56.388 213.699 56.124 212.715 56.124C211.611 56.124 210.651 56.46 209.835 57.132C209.019 57.78 208.395 58.596 207.963 59.58C207.531 60.564 207.279 61.536 207.207 62.496H211.095ZM226.029 68.796C226.029 69.06 226.113 69.288 226.281 69.48C226.449 69.648 226.665 69.732 226.929 69.732C227.313 69.732 227.613 69.516 227.829 69.084L229.953 70.416C229.617 71.04 229.173 71.532 228.621 71.892C228.093 72.228 227.469 72.396 226.749 72.396C225.621 72.396 224.721 72.072 224.049 71.424C223.401 70.752 223.077 69.84 223.077 68.688V45.828H226.029V68.796ZM239.416 72.36C237.712 72.36 236.176 71.952 234.808 71.136C233.464 70.32 232.408 69.204 231.64 67.788C230.872 66.348 230.488 64.728 230.488 62.928C230.488 61.128 230.872 59.508 231.64 58.068C232.432 56.604 233.5 55.464 234.844 54.648C236.212 53.808 237.748 53.388 239.452 53.388C241.156 53.388 242.68 53.796 244.024 54.612C245.392 55.428 246.46 56.568 247.228 58.032C247.996 59.472 248.38 61.092 248.38 62.892C248.38 64.692 247.996 66.312 247.228 67.752C246.46 69.192 245.392 70.32 244.024 71.136C242.656 71.952 241.12 72.36 239.416 72.36ZM239.452 69.696C241.252 69.696 242.692 69.072 243.772 67.824C244.876 66.576 245.428 64.932 245.428 62.892C245.428 60.828 244.876 59.172 243.772 57.924C242.692 56.676 241.252 56.052 239.452 56.052C238.276 56.052 237.232 56.34 236.32 56.916C235.408 57.492 234.7 58.296 234.196 59.328C233.692 60.36 233.44 61.548 233.44 62.892C233.44 64.932 233.992 66.576 235.096 67.824C236.2 69.072 237.652 69.696 239.452 69.696ZM259.449 53.496C261.129 53.496 262.557 53.916 263.733 54.756C264.933 55.596 265.833 56.724 266.433 58.14C267.057 59.532 267.369 61.068 267.369 62.748C267.369 64.596 267.009 66.252 266.289 67.716C265.593 69.156 264.561 70.296 263.193 71.136C261.849 71.952 260.265 72.36 258.441 72.36C257.721 72.36 256.497 72.252 254.769 72.036V81.36H251.925V59.4C251.925 57.528 251.421 56.16 250.413 55.296L252.393 53.46C252.753 53.676 253.113 54 253.473 54.432C253.833 54.84 254.133 55.32 254.373 55.872C254.949 55.152 255.705 54.576 256.641 54.144C257.577 53.712 258.513 53.496 259.449 53.496ZM258.261 69.696C260.277 69.696 261.801 69.084 262.833 67.86C263.889 66.636 264.417 65.004 264.417 62.964C264.417 61.044 263.973 59.436 263.085 58.14C262.197 56.82 261.009 56.16 259.521 56.16C258.345 56.16 257.277 56.544 256.317 57.312C255.381 58.056 254.865 59.016 254.769 60.192V69.48C256.209 69.624 257.373 69.696 258.261 69.696ZM278.087 72.36C276.311 72.36 274.787 71.976 273.515 71.208C272.267 70.416 271.319 69.36 270.671 68.04C270.023 66.696 269.699 65.196 269.699 63.54C269.699 61.908 270.011 60.324 270.635 58.788C271.259 57.252 272.195 55.98 273.443 54.972C274.691 53.964 276.227 53.46 278.051 53.46C279.251 53.46 280.367 53.7 281.399 54.18C282.431 54.636 283.247 55.308 283.847 56.196C284.471 57.06 284.783 58.068 284.783 59.22C284.783 61.068 284.027 62.52 282.515 63.576C281.003 64.632 279.035 65.136 276.611 65.088L272.867 65.016C273.131 66.504 273.707 67.656 274.595 68.472C275.507 69.264 276.707 69.66 278.195 69.66C280.139 69.66 281.987 69.012 283.739 67.716L285.359 69.768C283.079 71.496 280.655 72.36 278.087 72.36ZM276.611 62.496C278.219 62.496 279.491 62.22 280.427 61.668C281.363 61.116 281.831 60.288 281.831 59.184C281.831 58.2 281.471 57.444 280.751 56.916C280.055 56.388 279.215 56.124 278.231 56.124C277.127 56.124 276.167 56.46 275.351 57.132C274.535 57.78 273.911 58.596 273.479 59.58C273.047 60.564 272.795 61.536 272.723 62.496H276.611ZM296.404 53.388C297.1 53.388 297.928 53.508 298.888 53.748L298.816 56.592C297.856 56.328 297.076 56.196 296.476 56.196C295.348 56.196 294.472 56.46 293.848 56.988C293.128 57.564 292.504 58.332 291.976 59.292V72.036H289.024V59.292C289.024 57.42 288.52 56.052 287.512 55.188L289.492 53.352C289.852 53.568 290.212 53.892 290.572 54.324C290.956 54.756 291.268 55.248 291.508 55.8C292.036 55.128 292.576 54.612 293.128 54.252C294.04 53.676 295.132 53.388 296.404 53.388Z" fill="white"/>
</svg>
