<svg width="250" height="40" viewBox="0 0 250 40" fill="none" xmlns="http://www.w3.org/2000/svg">
<path d="M0 34.7415H1.45448C2.1232 34.7415 2.59131 34.5839 2.8588 34.2688C3.15972 33.9143 3.31019 33.3629 3.31019 32.6145V7.38553C3.31019 6.63713 3.15972 6.10537 2.8588 5.79025C2.59131 5.43575 2.1232 5.2585 1.45448 5.2585H0V0.886264H7.473L22.7701 28.8331V7.38553C22.7701 6.63713 22.6196 6.10537 22.3187 5.79025C22.0178 5.43575 21.5497 5.2585 20.9144 5.2585H19.4097V0.886264H31.3465V5.2585H29.8418C29.2066 5.2585 28.7385 5.43575 28.4375 5.79025C28.17 6.10537 28.0363 6.63713 28.0363 7.38553V39.1137H23.8735L8.5764 11.226V32.6145C8.5764 33.3629 8.72686 33.9143 9.02779 34.2688C9.32871 34.5839 9.79682 34.7415 10.4321 34.7415H11.8866V39.1137H0V34.7415ZM37.3352 0.827182H43.0026V6.26293H37.3352V0.827182ZM34.1755 34.7415H35.6299C36.2987 34.7415 36.7668 34.5643 37.0343 34.2097C37.3352 33.8552 37.4857 33.2841 37.4857 32.4963V17.3117C37.4857 16.5633 37.3352 16.0315 37.0343 15.7164C36.7668 15.3619 36.2987 15.1846 35.6299 15.1846H34.1755V10.7533H42.8522V32.5554C42.8522 33.3038 43.0026 33.8552 43.3036 34.2097C43.6045 34.5643 44.0726 34.7415 44.7079 34.7415H46.1624V39.1137H34.1755V34.7415ZM59.06 40C55.0142 40 51.6538 38.8577 48.9788 36.5731V31.9645H53.8941V34.3279C55.265 35.2733 56.9368 35.7459 58.9095 35.7459C60.4141 35.7459 61.5343 35.4702 62.2698 34.9188C63.0389 34.3673 63.4234 33.4613 63.4234 32.2009C63.4234 31.3737 63.2228 30.7041 62.8215 30.192C62.4537 29.6406 61.9355 29.1876 61.2668 28.8331C60.598 28.4392 59.2773 27.7696 57.3046 26.8242C55.3318 25.8789 53.8105 25.0714 52.7405 24.4018C51.704 23.6928 50.8514 22.8065 50.1826 21.743C49.5474 20.6795 49.2297 19.3402 49.2297 17.7253C49.2297 15.1256 50.0823 13.1758 51.7876 11.8759C53.4928 10.5367 55.8167 9.86706 58.759 9.86706C60.6315 9.86706 62.3869 10.1625 64.0252 10.7533C65.6636 11.3048 67.0847 12.1123 68.2884 13.1758V17.6071H63.4736V15.421C62.2698 14.5544 60.8321 14.1211 59.1603 14.1211C57.6556 14.1211 56.5188 14.3968 55.7498 14.9483C55.0142 15.4998 54.6464 16.4254 54.6464 17.7253C54.6464 18.9069 55.0476 19.8326 55.8501 20.5022C56.6526 21.1324 57.8897 21.8021 59.5615 22.5111C60.0296 22.6686 60.5479 22.8853 61.1163 23.161C62.855 23.9488 64.2426 24.6775 65.2791 25.3471C66.3156 26.0167 67.1683 26.903 67.837 28.0059C68.5057 29.1088 68.8401 30.5071 68.8401 32.2009C68.8401 34.7218 68.0209 36.6519 66.3825 37.9911C64.7776 39.3304 62.3367 40 59.06 40ZM72.1459 34.7415H73.3998C74.0685 34.7415 74.5366 34.5839 74.8041 34.2688C75.105 33.9143 75.2555 33.3432 75.2555 32.5554V6.55835C75.2555 5.80995 75.105 5.2585 74.8041 4.90399C74.5366 4.54949 74.0685 4.37223 73.3998 4.37223H72.3967V0H80.1205V13.7075C81.3242 12.2895 82.5446 11.3048 83.7818 10.7533C85.0523 10.1625 86.6406 9.86706 88.5464 9.86706C91.1544 9.86706 93.1105 10.7139 94.4145 12.4077C95.7519 14.1014 96.4206 16.5239 96.4206 19.675V32.5554C96.4206 33.3432 96.5544 33.9143 96.8219 34.2688C97.1228 34.5839 97.5909 34.7415 98.2262 34.7415H99.6305V39.1137H90.9538V19.7341C90.9538 17.7646 90.586 16.3269 89.8504 15.421C89.1148 14.515 87.9947 14.062 86.4901 14.062C84.7848 14.062 83.3805 14.6529 82.2771 15.8346C81.1737 16.9769 80.622 18.5721 80.622 20.6204V32.5554C80.622 33.3432 80.7391 33.9143 80.9731 34.2688C81.2406 34.5839 81.6753 34.7415 82.2771 34.7415H83.6313V39.1137H72.1459V34.7415ZM105.073 0.827182H110.74V6.26293H105.073V0.827182ZM101.913 34.7415H103.368C104.036 34.7415 104.505 34.5643 104.772 34.2097C105.073 33.8552 105.223 33.2841 105.223 32.4963V17.3117C105.223 16.5633 105.073 16.0315 104.772 15.7164C104.505 15.3619 104.036 15.1846 103.368 15.1846H101.913V10.7533H110.59V32.5554C110.59 33.3038 110.74 33.8552 111.041 34.2097C111.342 34.5643 111.81 34.7415 112.446 34.7415H113.9V39.1137H101.913V34.7415ZM116.717 34.7415H117.97C118.639 34.7415 119.107 34.5839 119.375 34.2688C119.676 33.9143 119.826 33.3432 119.826 32.5554V6.55835C119.826 5.80995 119.676 5.2585 119.375 4.90399C119.107 4.54949 118.639 4.37223 117.97 4.37223H116.967V0H124.691V13.7075C125.895 12.2895 127.115 11.3048 128.352 10.7533C129.623 10.1625 131.211 9.86706 133.117 9.86706C135.725 9.86706 137.681 10.7139 138.985 12.4077C140.322 14.1014 140.991 16.5239 140.991 19.675V32.5554C140.991 33.3432 141.125 33.9143 141.392 34.2688C141.693 34.5839 142.161 34.7415 142.796 34.7415H144.201V39.1137H135.524V19.7341C135.524 17.7646 135.157 16.3269 134.421 15.421C133.685 14.515 132.565 14.062 131.061 14.062C129.355 14.062 127.951 14.6529 126.848 15.8346C125.744 16.9769 125.193 18.5721 125.193 20.6204V32.5554C125.193 33.3432 125.31 33.9143 125.544 34.2688C125.811 34.5839 126.246 34.7415 126.848 34.7415H128.202V39.1137H116.717V34.7415ZM154.659 40C151.984 40 149.945 39.3107 148.54 37.9321C147.17 36.5534 146.484 34.6036 146.484 32.0827C146.484 29.2467 147.237 27.1787 148.741 25.8789C150.279 24.5396 152.486 23.7518 155.361 23.5155L162.383 22.9838V19.3796C162.383 17.5283 162.049 16.1891 161.38 15.3619C160.711 14.5347 159.574 14.1211 157.97 14.1211C156.866 14.1211 155.947 14.2393 155.211 14.4756C154.509 14.6726 153.857 15.0074 153.255 15.4801V17.6071H148.591V12.9394C151.399 10.8912 154.559 9.86706 158.07 9.86706C164.49 9.86706 167.699 13.2152 167.699 19.9114V32.8508C167.699 33.6386 167.816 34.2097 168.051 34.5643C168.318 34.9188 168.736 35.096 169.304 35.096H170.408V39.1137H164.64L163.988 35.3914C162.918 37.0064 161.664 38.1881 160.226 38.9365C158.822 39.6455 156.966 40 154.659 40ZM155.863 35.7459C157.869 35.7459 159.457 35.2339 160.628 34.2097C161.798 33.1856 162.383 31.6297 162.383 29.5421V26.7061L155.763 27.2969C154.124 27.4151 152.988 27.8287 152.352 28.5377C151.717 29.2073 151.399 30.2905 151.399 31.7873C151.399 33.0871 151.75 34.0719 152.453 34.7415C153.155 35.4111 154.292 35.7459 155.863 35.7459ZM173.239 34.7415H174.493C175.161 34.7415 175.629 34.5839 175.897 34.2688C176.198 33.9143 176.348 33.3432 176.348 32.5554V17.3117C176.348 16.5633 176.215 16.0118 175.947 15.6573C175.68 15.3028 175.228 15.1256 174.593 15.1256H173.54V10.7533H180.461L181.163 14.003C181.832 12.7819 182.684 11.935 183.721 11.4623C184.791 10.9897 186.045 10.7533 187.483 10.7533H189.79V15.1256H186.981C185.075 15.1256 183.721 15.6376 182.919 16.6617C182.116 17.6465 181.715 19.1827 181.715 21.2703V32.5554C181.715 33.3432 181.849 33.9143 182.116 34.2688C182.384 34.5839 182.835 34.7415 183.47 34.7415H184.724V39.1137H173.239V34.7415ZM198.985 40C196.31 40 194.27 39.3107 192.866 37.9321C191.495 36.5534 190.809 34.6036 190.809 32.0827C190.809 29.2467 191.562 27.1787 193.066 25.8789C194.605 24.5396 196.811 23.7518 199.687 23.5155L206.708 22.9838V19.3796C206.708 17.5283 206.374 16.1891 205.705 15.3619C205.037 14.5347 203.9 14.1211 202.295 14.1211C201.191 14.1211 200.272 14.2393 199.536 14.4756C198.834 14.6726 198.182 15.0074 197.58 15.4801V17.6071H192.916V12.9394C195.725 10.8912 198.884 9.86706 202.395 9.86706C208.815 9.86706 212.025 13.2152 212.025 19.9114V32.8508C212.025 33.6386 212.142 34.2097 212.376 34.5643C212.643 34.9188 213.061 35.096 213.63 35.096H214.733V39.1137H208.965L208.313 35.3914C207.243 37.0064 205.99 38.1881 204.552 38.9365C203.147 39.6455 201.292 40 198.985 40ZM200.188 35.7459C202.195 35.7459 203.783 35.2339 204.953 34.2097C206.123 33.1856 206.708 31.6297 206.708 29.5421V26.7061L200.088 27.2969C198.45 27.4151 197.313 27.8287 196.678 28.5377C196.042 29.2073 195.725 30.2905 195.725 31.7873C195.725 33.0871 196.076 34.0719 196.778 34.7415C197.48 35.4111 198.617 35.7459 200.188 35.7459ZM218.066 33.9143H222.73V39.1137H218.066V33.9143ZM238.615 40C236.274 40 234.051 39.6061 231.944 38.8183C229.838 38.0305 228.032 36.967 226.528 35.6278V29.8375H231.894V33.678C232.73 34.2688 233.75 34.7415 234.954 35.096C236.191 35.4505 237.445 35.6278 238.715 35.6278C240.721 35.6278 242.243 35.1354 243.279 34.1507C244.316 33.1265 244.834 31.6888 244.834 29.8375C244.834 28.5377 244.55 27.4545 243.981 26.5879C243.446 25.7213 242.677 24.9729 241.674 24.3427C240.671 23.7125 239.284 22.9838 237.512 22.1566C235.037 21.0143 233.048 19.9311 231.543 18.9069C230.039 17.8828 228.868 16.6814 228.032 15.3028C227.23 13.8848 226.829 12.1713 226.829 10.1625C226.829 6.81438 227.915 4.29345 230.089 2.59971C232.262 0.866568 235.054 0 238.464 0C240.705 0 242.744 0.3742 244.583 1.1226C246.456 1.871 248.061 2.85574 249.398 4.07681V9.57164H244.032V5.90842C242.56 4.8843 240.621 4.37223 238.214 4.37223C236.274 4.37223 234.753 4.82521 233.65 5.73117C232.546 6.63713 231.995 8.05515 231.995 9.98523C231.995 11.3245 232.346 12.4471 233.048 13.353C233.75 14.259 234.552 14.968 235.455 15.4801C236.358 15.9921 237.762 16.7011 239.668 17.6071C242.209 18.7888 244.165 19.8326 245.536 20.7386C246.907 21.6445 247.994 22.8065 248.796 24.2245C249.599 25.6032 250 27.3954 250 29.6012C250 31.61 249.549 33.4023 248.646 34.9778C247.776 36.514 246.489 37.7351 244.784 38.6411C243.079 39.547 241.022 40 238.615 40Z" fill="white"/>
</svg>
