<svg width="597" height="164" viewBox="0 0 597 164" fill="none" xmlns="http://www.w3.org/2000/svg">
<path d="M59.981 54.9731C55.469 54.9731 51.581 53.7491 48.317 51.3011C45.053 48.8051 43.013 45.5651 42.197 41.5811L47.165 39.4211C47.837 42.3971 49.349 44.8211 51.701 46.6931C54.101 48.5651 56.909 49.5011 60.125 49.5011C63.485 49.5011 66.221 48.5411 68.333 46.6211C70.493 44.6531 71.573 42.1331 71.573 39.0611C71.573 37.4771 71.261 36.1571 70.637 35.1011C70.013 33.9971 68.933 32.9651 67.397 32.0051C65.861 31.0451 63.677 29.9891 60.845 28.8371C56.045 26.8691 52.589 24.8291 50.477 22.7171C48.365 20.5571 47.309 18.0371 47.309 15.1571C47.309 12.8531 47.909 10.7651 49.109 8.89314C50.357 6.97314 52.037 5.48514 54.149 4.42914C56.261 3.32514 58.613 2.77314 61.205 2.77314C63.461 2.77314 65.501 3.18114 67.325 3.99714C69.197 4.81314 70.661 5.94114 71.717 7.38114C72.821 8.77314 73.373 10.3091 73.373 11.9891C73.373 14.0531 72.701 15.7331 71.357 17.0291C70.013 18.3251 68.309 18.9731 66.245 18.9731C65.621 18.9731 65.141 18.9491 64.805 18.9011L65.237 14.0051C65.525 14.1011 65.741 14.1491 65.885 14.1491C66.365 14.1491 66.773 13.9571 67.109 13.5731C67.493 13.1411 67.685 12.6371 67.685 12.0611C67.685 11.0051 67.061 10.1171 65.813 9.39714C64.565 8.62914 63.077 8.24514 61.349 8.24514C59.141 8.24514 57.221 8.89314 55.589 10.1891C53.957 11.4851 53.141 13.0451 53.141 14.8691C53.141 16.5011 53.957 18.0371 55.589 19.4771C57.221 20.8691 59.717 22.2611 63.077 23.6531C68.213 25.7651 71.909 28.0211 74.165 30.4211C76.421 32.7731 77.549 35.6291 77.549 38.9891C77.549 42.0131 76.781 44.7491 75.245 47.1971C73.709 49.5971 71.597 51.4931 68.909 52.8851C66.269 54.2771 63.293 54.9731 59.981 54.9731ZM114.367 47.1251C114.367 47.6531 114.535 48.1091 114.871 48.4931C115.207 48.8291 115.639 48.9971 116.167 48.9971C116.935 48.9971 117.535 48.5651 117.967 47.7011L122.215 50.3651C121.543 51.6131 120.655 52.5971 119.551 53.3171C118.495 53.9891 117.247 54.3251 115.807 54.3251C113.551 54.3251 111.751 53.6771 110.407 52.3811C109.111 51.0371 108.463 49.2131 108.463 46.9091V28.4771C108.463 23.9171 106.135 21.6371 101.479 21.6371C99.3668 21.6371 97.5428 22.1651 96.0068 23.2211C94.4708 24.2291 92.8628 25.8371 91.1828 28.0451V53.3891H85.2788V0.973141H91.1828V20.8451C94.3028 17.7251 97.9028 16.1651 101.983 16.1651C105.967 16.1651 109.015 17.2211 111.127 19.3331C113.287 21.4451 114.367 24.4211 114.367 28.2611V47.1251ZM132.985 47.1251C132.985 47.6531 133.153 48.1091 133.489 48.4931C133.825 48.8291 134.257 48.9971 134.785 48.9971C135.553 48.9971 136.153 48.5651 136.585 47.7011L140.833 50.3651C140.161 51.6131 139.273 52.5971 138.169 53.3171C137.113 53.9891 135.865 54.3251 134.425 54.3251C132.169 54.3251 130.369 53.6771 129.025 52.3811C127.729 51.0371 127.081 49.2131 127.081 46.9091V17.4611H132.985V47.1251ZM129.961 10.4771C129.001 10.4771 128.137 10.0931 127.369 9.32514C126.601 8.55714 126.217 7.69314 126.217 6.73314C126.217 5.72514 126.601 4.83714 127.369 4.06914C128.137 3.30114 129.001 2.91714 129.961 2.91714C130.969 2.91714 131.857 3.30114 132.625 4.06914C133.441 4.83714 133.849 5.72514 133.849 6.73314C133.849 7.69314 133.441 8.55714 132.625 9.32514C131.857 10.0931 130.969 10.4771 129.961 10.4771ZM182.64 50.3651C181.968 51.6131 181.08 52.5971 179.976 53.3171C178.92 53.9891 177.672 54.3251 176.232 54.3251C173.976 54.3251 172.176 53.6771 170.832 52.3811C169.536 51.0371 168.888 49.2131 168.888 46.9091V29.2691C168.888 26.8691 168.384 25.0451 167.376 23.7971C166.368 22.5011 164.64 21.8531 162.192 21.8531C159.984 21.8531 158.088 22.3811 156.504 23.4371C154.968 24.4931 153.384 26.1011 151.752 28.2611V53.6051H145.848V28.3331C145.848 24.5891 144.84 21.8531 142.824 20.1251L146.784 16.4531C147.6 16.8851 148.392 17.6051 149.16 18.6131C149.928 19.5731 150.552 20.6771 151.032 21.9251C154.008 18.3251 157.848 16.5251 162.552 16.5251C166.104 16.5251 168.984 17.4851 171.192 19.4051C173.4 21.2771 174.6 23.9411 174.792 27.3971V47.1251C174.792 47.6531 174.96 48.1091 175.296 48.4931C175.632 48.8291 176.064 48.9971 176.592 48.9971C177.36 48.9971 177.96 48.5651 178.392 47.7011L182.64 50.3651ZM186.201 71.6771C184.521 71.6771 183.081 71.2451 181.881 70.3811C180.633 69.5651 179.649 68.4611 178.929 67.0691L183.465 64.1171C184.185 65.5091 185.145 66.2051 186.345 66.2051C187.449 66.2051 188.001 65.4131 188.001 63.8291L188.073 17.5331H193.833V63.8291C193.833 66.2771 193.089 68.1971 191.601 69.5891C190.161 70.9811 188.361 71.6771 186.201 71.6771ZM190.809 10.4771C189.849 10.4771 188.985 10.0931 188.217 9.32514C187.449 8.55714 187.065 7.69314 187.065 6.73314C187.065 5.72514 187.449 4.83714 188.217 4.06914C188.985 3.30114 189.849 2.91714 190.809 2.91714C191.817 2.91714 192.705 3.30114 193.473 4.06914C194.289 4.83714 194.697 5.72514 194.697 6.73314C194.697 7.69314 194.289 8.55714 193.473 9.32514C192.705 10.0931 191.817 10.4771 190.809 10.4771ZM209.479 47.1251C209.479 47.6531 209.647 48.1091 209.983 48.4931C210.319 48.8291 210.751 48.9971 211.279 48.9971C212.047 48.9971 212.647 48.5651 213.079 47.7011L217.327 50.3651C216.655 51.6131 215.767 52.5971 214.663 53.3171C213.607 53.9891 212.359 54.3251 210.919 54.3251C208.663 54.3251 206.863 53.6771 205.519 52.3811C204.223 51.0371 203.575 49.2131 203.575 46.9091V17.4611H209.479V47.1251ZM206.455 10.4771C205.495 10.4771 204.631 10.0931 203.863 9.32514C203.095 8.55714 202.711 7.69314 202.711 6.73314C202.711 5.72514 203.095 4.83714 203.863 4.06914C204.631 3.30114 205.495 2.91714 206.455 2.91714C207.463 2.91714 208.351 3.30114 209.119 4.06914C209.935 4.83714 210.343 5.72514 210.343 6.73314C210.343 7.69314 209.935 8.55714 209.119 9.32514C208.351 10.0931 207.463 10.4771 206.455 10.4771ZM245.368 54.3971C244.024 54.3971 242.752 54.0371 241.552 53.3171C240.4 52.5971 239.488 51.6371 238.816 50.4371L243.064 47.5571C243.544 48.4211 244.168 48.8531 244.936 48.8531C245.464 48.8531 245.896 48.6851 246.232 48.3491C246.568 47.9651 246.736 47.5331 246.736 47.0531V4.14114H250.624L258.616 13.1411L280.72 41.8691L280.432 40.7891L280.216 4.21314H286.264V53.6051H283.528L251.776 13.9331L252.568 15.8051L252.712 47.0531C252.712 49.1171 251.968 50.8691 250.48 52.3091C248.992 53.7011 247.288 54.3971 245.368 54.3971ZM303.271 47.1251C303.271 47.6531 303.439 48.1091 303.775 48.4931C304.111 48.8291 304.543 48.9971 305.071 48.9971C305.839 48.9971 306.439 48.5651 306.871 47.7011L311.119 50.3651C310.447 51.6131 309.559 52.5971 308.455 53.3171C307.399 53.9891 306.151 54.3251 304.711 54.3251C302.455 54.3251 300.655 53.6771 299.311 52.3811C298.015 51.0371 297.367 49.2131 297.367 46.9091V17.4611H303.271V47.1251ZM300.247 10.4771C299.287 10.4771 298.423 10.0931 297.655 9.32514C296.887 8.55714 296.503 7.69314 296.503 6.73314C296.503 5.72514 296.887 4.83714 297.655 4.06914C298.423 3.30114 299.287 2.91714 300.247 2.91714C301.255 2.91714 302.143 3.30114 302.911 4.06914C303.727 4.83714 304.135 5.72514 304.135 6.73314C304.135 7.69314 303.727 8.55714 302.911 9.32514C302.143 10.0931 301.255 10.4771 300.247 10.4771ZM326.988 54.2531C321.708 54.2531 317.052 52.2371 313.02 48.2051L316.404 44.2451C318.228 45.8291 319.956 47.0051 321.588 47.7731C323.22 48.4931 324.948 48.8531 326.772 48.8531C329.124 48.8531 330.972 48.3491 332.316 47.3411C333.708 46.2851 334.404 44.8451 334.404 43.0211C334.404 41.9171 334.116 41.0291 333.54 40.3571C333.012 39.6851 332.22 39.1091 331.164 38.6291C330.156 38.1011 328.452 37.3571 326.052 36.3971C323.412 35.3411 321.348 34.4291 319.86 33.6611C318.42 32.8451 317.268 31.8371 316.404 30.6371C315.54 29.3891 315.108 27.8531 315.108 26.0291C315.108 23.0531 316.164 20.6531 318.276 18.8291C320.388 17.0051 323.124 16.0931 326.484 16.0931C328.452 16.0931 330.42 16.4291 332.388 17.1011C334.404 17.7251 335.988 18.5411 337.14 19.5491L334.62 23.7971C332.46 22.2131 329.94 21.4211 327.06 21.4211C325.236 21.4211 323.772 21.8051 322.668 22.5731C321.612 23.2931 321.084 24.3011 321.084 25.5971C321.084 26.9411 321.612 27.9971 322.668 28.7651C323.772 29.4851 325.644 30.3731 328.284 31.4291C331.26 32.6291 333.588 33.7091 335.268 34.6691C336.948 35.6291 338.22 36.7571 339.084 38.0531C339.948 39.3011 340.38 40.8851 340.38 42.8051C340.38 46.2131 339.132 48.9731 336.636 51.0851C334.14 53.1971 330.924 54.2531 326.988 54.2531ZM375.983 47.1251C375.983 47.6531 376.151 48.1091 376.487 48.4931C376.823 48.8291 377.255 48.9971 377.783 48.9971C378.551 48.9971 379.151 48.5651 379.583 47.7011L383.831 50.3651C383.159 51.6131 382.271 52.5971 381.167 53.3171C380.111 53.9891 378.863 54.3251 377.423 54.3251C375.167 54.3251 373.367 53.6771 372.023 52.3811C370.727 51.0371 370.079 49.2131 370.079 46.9091V28.4771C370.079 23.9171 367.751 21.6371 363.095 21.6371C360.983 21.6371 359.159 22.1651 357.623 23.2211C356.087 24.2291 354.479 25.8371 352.799 28.0451V53.3891H346.895V0.973141H352.799V20.8451C355.919 17.7251 359.519 16.1651 363.599 16.1651C367.583 16.1651 370.631 17.2211 372.743 19.3331C374.903 21.4451 375.983 24.4211 375.983 28.2611V47.1251ZM394.601 47.1251C394.601 47.6531 394.769 48.1091 395.105 48.4931C395.441 48.8291 395.873 48.9971 396.401 48.9971C397.169 48.9971 397.769 48.5651 398.201 47.7011L402.449 50.3651C401.777 51.6131 400.889 52.5971 399.785 53.3171C398.729 53.9891 397.481 54.3251 396.041 54.3251C393.785 54.3251 391.985 53.6771 390.641 52.3811C389.345 51.0371 388.697 49.2131 388.697 46.9091V17.4611H394.601V47.1251ZM391.577 10.4771C390.617 10.4771 389.753 10.0931 388.985 9.32514C388.217 8.55714 387.833 7.69314 387.833 6.73314C387.833 5.72514 388.217 4.83714 388.985 4.06914C389.753 3.30114 390.617 2.91714 391.577 2.91714C392.585 2.91714 393.473 3.30114 394.241 4.06914C395.057 4.83714 395.465 5.72514 395.465 6.73314C395.465 7.69314 395.057 8.55714 394.241 9.32514C393.473 10.0931 392.585 10.4771 391.577 10.4771ZM436.823 47.1251C436.823 47.6531 436.991 48.1091 437.327 48.4931C437.663 48.8291 438.095 48.9971 438.623 48.9971C439.391 48.9971 439.991 48.5651 440.423 47.7011L444.671 50.3651C443.999 51.6131 443.111 52.5971 442.007 53.3171C440.951 53.9891 439.703 54.3251 438.263 54.3251C436.007 54.3251 434.207 53.6771 432.863 52.3811C431.567 51.0371 430.919 49.2131 430.919 46.9091V28.4771C430.919 23.9171 428.591 21.6371 423.935 21.6371C421.823 21.6371 419.999 22.1651 418.463 23.2211C416.927 24.2291 415.319 25.8371 413.639 28.0451V53.3891H407.735V0.973141H413.639V20.8451C416.759 17.7251 420.359 16.1651 424.439 16.1651C428.423 16.1651 431.471 17.2211 433.583 19.3331C435.743 21.4451 436.823 24.4211 436.823 28.2611V47.1251ZM461.307 54.2531C458.091 54.2531 455.307 53.4131 452.955 51.7331C450.651 50.0051 448.875 47.7011 447.627 44.8211C446.427 41.9411 445.827 38.8211 445.827 35.4611C445.827 31.8131 446.523 28.5491 447.915 25.6691C449.307 22.7891 451.347 20.5091 454.035 18.8291C456.771 17.1491 460.035 16.3091 463.827 16.3091C464.931 16.3091 466.299 16.3811 467.931 16.5251C469.611 16.6211 471.027 16.7651 472.179 16.9571H477.003V46.8371C477.003 47.5091 477.147 48.0371 477.435 48.4211C477.771 48.7571 478.251 48.9251 478.875 48.9251C479.691 48.9251 480.339 48.5171 480.819 47.7011L484.851 50.3651C484.227 51.5651 483.315 52.5251 482.115 53.2451C480.963 53.9171 479.715 54.2531 478.371 54.2531C476.595 54.2531 475.059 53.7491 473.763 52.7411C472.515 51.6851 471.843 50.4611 471.747 49.0691V49.1411C470.931 50.7251 469.563 51.9731 467.643 52.8851C465.723 53.7971 463.611 54.2531 461.307 54.2531ZM461.739 48.9251C463.659 48.9251 465.363 48.4211 466.851 47.4131C468.339 46.4051 469.467 45.1331 470.235 43.5971C470.667 42.7811 470.907 42.0851 470.955 41.5091C471.051 40.9331 471.099 40.2851 471.099 39.5651V22.1411L468.075 21.9251C465.675 21.7331 464.067 21.6371 463.251 21.6371C459.603 21.6371 456.771 22.9331 454.755 25.5251C452.739 28.1171 451.731 31.4051 451.731 35.3891C451.731 39.0851 452.619 42.2771 454.395 44.9651C456.171 47.6051 458.619 48.9251 461.739 48.9251ZM504.651 16.3091C506.043 16.3091 507.699 16.5491 509.619 17.0291L509.475 22.7171C507.555 22.1891 505.995 21.9251 504.795 21.9251C502.539 21.9251 500.787 22.4531 499.539 23.5091C498.099 24.6611 496.851 26.1971 495.795 28.1171V53.6051H489.891V28.1171C489.891 24.3731 488.883 21.6371 486.867 19.9091L490.827 16.2371C491.547 16.6691 492.267 17.3171 492.987 18.1811C493.755 19.0451 494.379 20.0291 494.859 21.1331C495.915 19.7891 496.995 18.7571 498.099 18.0371C499.923 16.8851 502.107 16.3091 504.651 16.3091ZM526.787 54.2531C523.571 54.2531 520.787 53.4131 518.435 51.7331C516.131 50.0051 514.355 47.7011 513.107 44.8211C511.907 41.9411 511.307 38.8211 511.307 35.4611C511.307 31.8131 512.003 28.5491 513.395 25.6691C514.787 22.7891 516.827 20.5091 519.515 18.8291C522.251 17.1491 525.515 16.3091 529.307 16.3091C530.411 16.3091 531.779 16.3811 533.411 16.5251C535.091 16.6211 536.507 16.7651 537.659 16.9571H542.483V46.8371C542.483 47.5091 542.627 48.0371 542.915 48.4211C543.251 48.7571 543.731 48.9251 544.355 48.9251C545.171 48.9251 545.819 48.5171 546.299 47.7011L550.331 50.3651C549.707 51.5651 548.795 52.5251 547.595 53.2451C546.443 53.9171 545.195 54.2531 543.851 54.2531C542.075 54.2531 540.539 53.7491 539.243 52.7411C537.995 51.6851 537.323 50.4611 537.227 49.0691V49.1411C536.411 50.7251 535.043 51.9731 533.123 52.8851C531.203 53.7971 529.091 54.2531 526.787 54.2531ZM527.219 48.9251C529.139 48.9251 530.843 48.4211 532.331 47.4131C533.819 46.4051 534.947 45.1331 535.715 43.5971C536.147 42.7811 536.387 42.0851 536.435 41.5091C536.531 40.9331 536.579 40.2851 536.579 39.5651V22.1411L533.555 21.9251C531.155 21.7331 529.547 21.6371 528.731 21.6371C525.083 21.6371 522.251 22.9331 520.235 25.5251C518.219 28.1171 517.211 31.4051 517.211 35.3891C517.211 39.0851 518.099 42.2771 519.875 44.9651C521.651 47.6051 524.099 48.9251 527.219 48.9251ZM0.413077 95.1411H6.31708V144.605H0.413077V95.1411ZM17.2875 107.957C18.6315 106.565 19.3035 104.981 19.3035 103.205C19.3035 102.437 19.1835 101.645 18.9435 100.829C18.7515 99.9651 18.6315 99.3411 18.5835 98.9571L18.4395 98.2371C18.2955 97.2771 18.5355 96.4371 19.1595 95.7171C19.7835 94.9971 20.5995 94.6371 21.6075 94.6371C22.3275 94.6371 22.9515 94.8771 23.4795 95.3571C24.0075 95.8371 24.3435 96.4611 24.4875 97.2291L24.5595 97.8771C24.7515 99.1251 24.8475 100.061 24.8475 100.685C24.8475 101.501 24.7275 102.557 24.4875 103.853C24.2475 105.005 23.7675 106.133 23.0475 107.237C22.3755 108.341 21.5595 109.325 20.5995 110.189L17.2875 107.957ZM90.8715 141.365C90.1995 142.613 89.3115 143.597 88.2075 144.317C87.1515 144.989 85.9035 145.325 84.4635 145.325C82.2075 145.325 80.4075 144.677 79.0635 143.381C77.7675 142.037 77.1195 140.213 77.1195 137.909V119.333C76.9275 116.981 76.3515 115.325 75.3915 114.365C74.4315 113.405 72.9915 112.925 71.0715 112.925C69.1515 112.925 67.4235 113.405 65.8875 114.365C64.3995 115.277 63.0795 116.861 61.9275 119.117V144.605H56.0235V120.269C56.0235 117.917 55.5195 116.117 54.5115 114.869C53.5035 113.573 52.0155 112.925 50.0475 112.925C48.0795 112.925 46.2555 113.501 44.5755 114.653C42.8955 115.757 41.6715 117.173 40.9035 118.901V144.605H34.9995V119.333C34.9995 115.589 33.9915 112.853 31.9755 111.125L35.9355 107.453C36.7035 107.885 37.4715 108.581 38.2395 109.541C39.0075 110.453 39.6315 111.509 40.1115 112.709C41.4555 111.125 43.0155 109.877 44.7915 108.965C46.5675 108.053 48.4395 107.597 50.4075 107.597C52.5195 107.597 54.4635 108.125 56.2395 109.181C58.0155 110.237 59.3835 111.653 60.3435 113.429C61.7355 111.653 63.3675 110.237 65.2395 109.181C67.1115 108.125 69.0795 107.597 71.1435 107.597C74.7435 107.597 77.6235 108.581 79.7835 110.549C81.9435 112.517 83.0235 115.397 83.0235 119.189V138.125C83.0235 138.653 83.1915 139.109 83.5275 139.493C83.8635 139.829 84.2955 139.997 84.8235 139.997C85.5915 139.997 86.1915 139.565 86.6235 138.701L90.8715 141.365ZM119.038 101.621C118.606 100.373 117.934 99.9171 117.022 100.253C116.638 100.349 116.374 100.541 116.23 100.829L112.342 97.4451C113.158 96.2451 114.382 95.3811 116.014 94.8531C116.83 94.6131 117.55 94.4931 118.174 94.4931C119.662 94.4931 120.982 94.9731 122.134 95.9331C123.286 96.8451 124.102 98.1651 124.582 99.8931L135.67 135.461L135.958 138.269L136.318 135.461L148.846 95.0691H154.174L166.486 135.461L166.99 138.485L167.35 135.461L179.878 95.0691H185.782L169.654 144.605H164.326L151.438 105.149L138.694 144.605H133.366L119.038 101.621ZM203.294 145.253C199.742 145.253 196.694 144.485 194.15 142.949C191.654 141.365 189.758 139.253 188.462 136.613C187.166 133.925 186.518 130.925 186.518 127.613C186.518 124.349 187.142 121.181 188.39 118.109C189.638 115.037 191.51 112.493 194.006 110.477C196.502 108.461 199.574 107.453 203.222 107.453C205.622 107.453 207.854 107.933 209.918 108.893C211.982 109.805 213.614 111.149 214.814 112.925C216.062 114.653 216.686 116.669 216.686 118.973C216.686 122.669 215.174 125.573 212.15 127.685C209.126 129.797 205.19 130.805 200.342 130.709L192.854 130.565C193.382 133.541 194.534 135.845 196.31 137.477C198.134 139.061 200.534 139.853 203.51 139.853C207.398 139.853 211.094 138.557 214.598 135.965L217.838 140.069C213.278 143.525 208.43 145.253 203.294 145.253ZM200.342 125.525C203.558 125.525 206.102 124.973 207.974 123.869C209.846 122.765 210.782 121.109 210.782 118.901C210.782 116.933 210.062 115.421 208.622 114.365C207.23 113.309 205.55 112.781 203.582 112.781C201.374 112.781 199.454 113.453 197.822 114.797C196.19 116.093 194.942 117.725 194.078 119.693C193.214 121.661 192.71 123.605 192.566 125.525H200.342ZM237.265 145.253C234.865 145.253 232.585 145.109 230.425 144.821C229.465 144.725 228.385 144.557 227.185 144.317C225.985 144.029 225.121 143.789 224.593 143.597V92.1891H230.497V110.765C231.841 109.613 233.329 108.749 234.961 108.173C236.641 107.597 238.369 107.309 240.145 107.309C243.217 107.309 245.929 108.125 248.281 109.757C250.681 111.389 252.529 113.645 253.825 116.525C255.121 119.405 255.769 122.645 255.769 126.245C255.769 129.749 255.121 132.941 253.825 135.821C252.529 138.653 250.489 140.933 247.705 142.661C244.969 144.389 241.489 145.253 237.265 145.253ZM237.193 139.853C241.705 139.853 244.945 138.605 246.913 136.109C248.881 133.613 249.865 130.349 249.865 126.317C249.865 123.485 249.409 121.037 248.497 118.973C247.633 116.909 246.433 115.349 244.897 114.293C243.409 113.189 241.753 112.637 239.929 112.637C237.913 112.637 235.897 113.357 233.881 114.797C231.865 116.285 230.737 118.325 230.497 120.917V139.421L233.305 139.709C234.265 139.805 235.561 139.853 237.193 139.853ZM302.703 145.181C301.119 145.181 299.319 145.133 297.303 145.037C295.335 144.989 293.799 144.941 292.695 144.893L288.591 144.461V100.325C287.343 100.325 286.479 100.541 285.999 100.973C285.471 101.405 285.159 102.197 285.063 103.349L279.663 103.277C279.663 100.397 280.551 98.1891 282.327 96.6531C283.767 95.3571 285.879 94.7091 288.663 94.7091L307.815 94.7811C312.375 94.9251 316.383 96.0771 319.839 98.2371C323.295 100.397 325.983 103.349 327.903 107.093C329.823 110.837 330.783 115.109 330.783 119.909C330.783 128.405 328.455 134.741 323.799 138.917C319.191 143.093 312.159 145.181 302.703 145.181ZM303.639 139.781C310.647 139.781 315.927 138.125 319.479 134.813C323.079 131.453 324.879 126.485 324.879 119.909C324.879 115.925 324.135 112.469 322.647 109.541C321.207 106.565 319.143 104.285 316.455 102.701C313.767 101.069 310.623 100.253 307.023 100.253H294.495V139.421C295.455 139.517 296.871 139.613 298.743 139.709C300.615 139.757 302.247 139.781 303.639 139.781ZM353.31 145.253C349.758 145.253 346.71 144.485 344.166 142.949C341.67 141.365 339.774 139.253 338.478 136.613C337.182 133.925 336.534 130.925 336.534 127.613C336.534 124.349 337.158 121.181 338.406 118.109C339.654 115.037 341.526 112.493 344.022 110.477C346.518 108.461 349.59 107.453 353.238 107.453C355.638 107.453 357.87 107.933 359.934 108.893C361.998 109.805 363.63 111.149 364.83 112.925C366.078 114.653 366.702 116.669 366.702 118.973C366.702 122.669 365.19 125.573 362.166 127.685C359.142 129.797 355.206 130.805 350.358 130.709L342.87 130.565C343.398 133.541 344.55 135.845 346.326 137.477C348.15 139.061 350.55 139.853 353.526 139.853C357.414 139.853 361.11 138.557 364.614 135.965L367.854 140.069C363.294 143.525 358.446 145.253 353.31 145.253ZM350.358 125.525C353.574 125.525 356.118 124.973 357.99 123.869C359.862 122.765 360.798 121.109 360.798 118.901C360.798 116.933 360.078 115.421 358.638 114.365C357.246 113.309 355.566 112.781 353.598 112.781C351.39 112.781 349.47 113.453 347.838 114.797C346.206 116.093 344.958 117.725 344.094 119.693C343.23 121.661 342.726 123.605 342.582 125.525H350.358ZM374.033 115.085C373.649 114.221 373.073 113.429 372.305 112.709C371.537 111.941 370.769 111.461 370.001 111.269L373.169 106.445C376.145 108.125 378.377 110.957 379.865 114.941L387.785 135.893L397.937 107.957H403.841L390.449 144.605H385.193L374.033 115.085ZM423.643 145.253C420.091 145.253 417.043 144.485 414.499 142.949C412.003 141.365 410.107 139.253 408.811 136.613C407.515 133.925 406.867 130.925 406.867 127.613C406.867 124.349 407.491 121.181 408.739 118.109C409.987 115.037 411.859 112.493 414.355 110.477C416.851 108.461 419.923 107.453 423.571 107.453C425.971 107.453 428.203 107.933 430.267 108.893C432.331 109.805 433.963 111.149 435.163 112.925C436.411 114.653 437.035 116.669 437.035 118.973C437.035 122.669 435.523 125.573 432.499 127.685C429.475 129.797 425.539 130.805 420.691 130.709L413.203 130.565C413.731 133.541 414.883 135.845 416.659 137.477C418.483 139.061 420.883 139.853 423.859 139.853C427.747 139.853 431.443 138.557 434.947 135.965L438.187 140.069C433.627 143.525 428.779 145.253 423.643 145.253ZM420.691 125.525C423.907 125.525 426.451 124.973 428.323 123.869C430.195 122.765 431.131 121.109 431.131 118.901C431.131 116.933 430.411 115.421 428.971 114.365C427.579 113.309 425.899 112.781 423.931 112.781C421.723 112.781 419.803 113.453 418.171 114.797C416.539 116.093 415.291 117.725 414.427 119.693C413.563 121.661 413.059 123.605 412.915 125.525H420.691ZM450.557 138.125C450.557 138.653 450.725 139.109 451.061 139.493C451.397 139.829 451.829 139.997 452.357 139.997C453.125 139.997 453.725 139.565 454.157 138.701L458.405 141.365C457.733 142.613 456.845 143.597 455.741 144.317C454.685 144.989 453.437 145.325 451.997 145.325C449.741 145.325 447.941 144.677 446.597 143.381C445.301 142.037 444.653 140.213 444.653 137.909V92.1891H450.557V138.125ZM477.333 145.253C473.925 145.253 470.853 144.437 468.117 142.805C465.429 141.173 463.317 138.941 461.781 136.109C460.245 133.229 459.477 129.989 459.477 126.389C459.477 122.789 460.245 119.549 461.781 116.669C463.365 113.741 465.501 111.461 468.189 109.829C470.925 108.149 473.997 107.309 477.405 107.309C480.813 107.309 483.861 108.125 486.549 109.757C489.285 111.389 491.421 113.669 492.957 116.597C494.493 119.477 495.261 122.717 495.261 126.317C495.261 129.917 494.493 133.157 492.957 136.037C491.421 138.917 489.285 141.173 486.549 142.805C483.813 144.437 480.741 145.253 477.333 145.253ZM477.405 139.925C481.005 139.925 483.885 138.677 486.045 136.181C488.253 133.685 489.357 130.397 489.357 126.317C489.357 122.189 488.253 118.877 486.045 116.381C483.885 113.885 481.005 112.637 477.405 112.637C475.053 112.637 472.965 113.213 471.141 114.365C469.317 115.517 467.901 117.125 466.893 119.189C465.885 121.253 465.381 123.629 465.381 126.317C465.381 130.397 466.485 133.685 468.693 136.181C470.901 138.677 473.805 139.925 477.405 139.925ZM517.399 107.525C520.759 107.525 523.615 108.365 525.967 110.045C528.367 111.725 530.167 113.981 531.367 116.813C532.615 119.597 533.239 122.669 533.239 126.029C533.239 129.725 532.519 133.037 531.079 135.965C529.687 138.845 527.623 141.125 524.887 142.805C522.199 144.437 519.031 145.253 515.383 145.253C513.943 145.253 511.495 145.037 508.039 144.605V163.253H502.351V119.333C502.351 115.589 501.343 112.853 499.327 111.125L503.287 107.453C504.007 107.885 504.727 108.533 505.447 109.397C506.167 110.213 506.767 111.173 507.247 112.277C508.399 110.837 509.911 109.685 511.783 108.821C513.655 107.957 515.527 107.525 517.399 107.525ZM515.023 139.925C519.055 139.925 522.103 138.701 524.167 136.253C526.279 133.805 527.335 130.541 527.335 126.461C527.335 122.621 526.447 119.405 524.671 116.813C522.895 114.173 520.519 112.853 517.543 112.853C515.191 112.853 513.055 113.621 511.135 115.157C509.263 116.645 508.231 118.565 508.039 120.917V139.493C510.919 139.781 513.247 139.925 515.023 139.925ZM554.674 145.253C551.122 145.253 548.074 144.485 545.53 142.949C543.034 141.365 541.138 139.253 539.842 136.613C538.546 133.925 537.898 130.925 537.898 127.613C537.898 124.349 538.522 121.181 539.77 118.109C541.018 115.037 542.89 112.493 545.386 110.477C547.882 108.461 550.954 107.453 554.602 107.453C557.002 107.453 559.234 107.933 561.298 108.893C563.362 109.805 564.994 111.149 566.194 112.925C567.442 114.653 568.066 116.669 568.066 118.973C568.066 122.669 566.554 125.573 563.53 127.685C560.506 129.797 556.57 130.805 551.722 130.709L544.234 130.565C544.762 133.541 545.914 135.845 547.69 137.477C549.514 139.061 551.914 139.853 554.89 139.853C558.778 139.853 562.474 138.557 565.978 135.965L569.218 140.069C564.658 143.525 559.81 145.253 554.674 145.253ZM551.722 125.525C554.938 125.525 557.482 124.973 559.354 123.869C561.226 122.765 562.162 121.109 562.162 118.901C562.162 116.933 561.442 115.421 560.002 114.365C558.61 113.309 556.93 112.781 554.962 112.781C552.754 112.781 550.834 113.453 549.202 114.797C547.57 116.093 546.322 117.725 545.458 119.693C544.594 121.661 544.09 123.605 543.946 125.525H551.722ZM591.309 107.309C592.701 107.309 594.357 107.549 596.277 108.029L596.133 113.717C594.213 113.189 592.653 112.925 591.453 112.925C589.197 112.925 587.445 113.453 586.197 114.509C584.757 115.661 583.509 117.197 582.453 119.117V144.605H576.549V119.117C576.549 115.373 575.541 112.637 573.525 110.909L577.485 107.237C578.205 107.669 578.925 108.317 579.645 109.181C580.413 110.045 581.037 111.029 581.517 112.133C582.573 110.789 583.653 109.757 584.757 109.037C586.581 107.885 588.765 107.309 591.309 107.309Z" fill="white"/>
</svg>
